<svg width="121" height="27" viewBox="0 0 121 27" fill="none" xmlns="http://www.w3.org/2000/svg">
<path d="M17.956 11.2679V13.6639C17.956 13.823 17.8928 13.9757 17.7803 14.0882C17.6677 14.2007 17.5151 14.2639 17.356 14.2639H14.36V17.2599C14.36 17.419 14.2968 17.5717 14.1843 17.6842C14.0717 17.7967 13.9191 17.8599 13.76 17.8599H11.364C11.2049 17.8599 11.0522 17.7967 10.9397 17.6842C10.8272 17.5717 10.764 17.419 10.764 17.2599V14.2639H7.77065C7.61152 14.2639 7.45891 14.2007 7.34639 14.0882C7.23387 13.9757 7.17065 13.823 7.17065 13.6639V11.2679C7.17065 11.1088 7.23387 10.9562 7.34639 10.8436C7.45891 10.7311 7.61152 10.6679 7.77065 10.6679H10.7667V7.67191C10.767 7.51301 10.8304 7.36074 10.9429 7.24851C11.0553 7.13627 11.2078 7.07324 11.3667 7.07324H13.7627C13.9218 7.07324 14.0744 7.13646 14.1869 7.24898C14.2994 7.3615 14.3627 7.51411 14.3627 7.67324V10.6679H17.3573C17.5165 10.6679 17.6691 10.7311 17.7816 10.8436C17.8941 10.9562 17.956 11.1088 17.956 11.2679Z" stroke="black" stroke-width="1.5" stroke-linecap="round" stroke-linejoin="round"/>
<path d="M24.1253 13.1877V6.14774C24.1253 5.60758 23.9553 5.08112 23.6394 4.64296C23.3236 4.20479 22.8778 3.87713 22.3653 3.70641L15.8133 1.52107C13.7019 0.826308 11.4234 0.826308 9.312 1.52107L2.76 3.70507C2.24775 3.87573 1.80215 4.20318 1.48628 4.64108C1.17042 5.07898 1.0003 5.60514 1 6.14507V13.1851C1.00024 14.9229 1.44102 16.6322 2.28113 18.1534C3.12125 19.6746 4.33329 20.9581 5.804 21.8837L11.2013 25.2757C11.6098 25.5303 12.0814 25.6653 12.5627 25.6653C13.0439 25.6653 13.5156 25.5303 13.924 25.2757L19.32 21.8837C20.7908 20.9583 22.0029 19.6752 22.8433 18.1542C23.6836 16.6333 24.1247 14.9241 24.1253 13.1864" stroke="black" stroke-width="1.5" stroke-linecap="round" stroke-linejoin="round"/>
<path d="M37.6132 18.5245C36.9732 18.5245 36.3652 18.4605 35.7892 18.3325C35.2132 18.2045 34.7012 18.0019 34.2532 17.7245C33.8159 17.4365 33.4692 17.0792 33.2132 16.6525C32.9679 16.2152 32.8452 15.6872 32.8452 15.0685C32.8452 15.0152 32.8452 14.9619 32.8452 14.9085C32.8452 14.8445 32.8506 14.7965 32.8612 14.7645H35.2292C35.2186 14.7965 35.2132 14.8392 35.2132 14.8925C35.2132 14.9459 35.2132 14.9939 35.2132 15.0365C35.2132 15.3779 35.3039 15.6659 35.4852 15.9005C35.6772 16.1352 35.9546 16.3112 36.3172 16.4285C36.6799 16.5459 37.1012 16.6045 37.5812 16.6045C37.8906 16.6045 38.1626 16.5885 38.3972 16.5565C38.6426 16.5139 38.8559 16.4605 39.0372 16.3965C39.2292 16.3219 39.3839 16.2365 39.5012 16.1405C39.6292 16.0445 39.7199 15.9325 39.7732 15.8045C39.8372 15.6765 39.8692 15.5325 39.8692 15.3725C39.8692 15.0845 39.7732 14.8499 39.5812 14.6685C39.3999 14.4872 39.1439 14.3325 38.8132 14.2045C38.4932 14.0765 38.1306 13.9592 37.7252 13.8525C37.3199 13.7459 36.9039 13.6392 36.4772 13.5325C36.0506 13.4152 35.6346 13.2765 35.2292 13.1165C34.8239 12.9459 34.4612 12.7432 34.1412 12.5085C33.8212 12.2739 33.5652 11.9752 33.3732 11.6125C33.1812 11.2499 33.0852 10.8125 33.0852 10.3005C33.0852 9.75652 33.1972 9.28719 33.4212 8.89252C33.6559 8.49785 33.9812 8.17252 34.3972 7.91652C34.8132 7.66052 35.2932 7.47385 35.8372 7.35652C36.3812 7.22852 36.9732 7.16452 37.6132 7.16452C38.2106 7.16452 38.7759 7.22852 39.3092 7.35652C39.8426 7.47385 40.3119 7.66585 40.7172 7.93252C41.1226 8.19919 41.4372 8.53519 41.6612 8.94052C41.8959 9.34585 42.0132 9.82585 42.0132 10.3805V10.5725H39.6932V10.4445C39.6932 10.1565 39.6079 9.91119 39.4372 9.70852C39.2666 9.50585 39.0266 9.34585 38.7172 9.22852C38.4079 9.11119 38.0452 9.05252 37.6292 9.05252C37.1812 9.05252 36.7972 9.09519 36.4772 9.18052C36.1679 9.26585 35.9279 9.39385 35.7572 9.56452C35.5972 9.72452 35.5172 9.91652 35.5172 10.1405C35.5172 10.3965 35.6079 10.6099 35.7892 10.7805C35.9812 10.9405 36.2372 11.0845 36.5572 11.2125C36.8879 11.3299 37.2559 11.4365 37.6612 11.5325C38.0666 11.6285 38.4826 11.7352 38.9092 11.8525C39.3359 11.9699 39.7519 12.1085 40.1572 12.2685C40.5626 12.4285 40.9252 12.6312 41.2452 12.8765C41.5652 13.1112 41.8212 13.4045 42.0132 13.7565C42.2052 14.1085 42.3012 14.5299 42.3012 15.0205C42.3012 15.8632 42.0986 16.5405 41.6932 17.0525C41.2879 17.5645 40.7332 17.9379 40.0292 18.1725C39.3252 18.4072 38.5199 18.5245 37.6132 18.5245ZM47.0486 18.5245C46.1953 18.5245 45.518 18.2899 45.0166 17.8205C44.5153 17.3512 44.2646 16.5939 44.2646 15.5485V9.91652H46.4886V15.1805C46.4886 15.4579 46.5206 15.6925 46.5846 15.8845C46.6486 16.0659 46.7393 16.2152 46.8566 16.3325C46.9846 16.4499 47.1393 16.5352 47.3206 16.5885C47.502 16.6419 47.7046 16.6685 47.9286 16.6685C48.2593 16.6685 48.558 16.5885 48.8246 16.4285C49.0913 16.2685 49.2993 16.0499 49.4486 15.7725C49.598 15.4845 49.6726 15.1645 49.6726 14.8125V9.91652H51.8966V18.3325H50.0726L49.9126 17.1805H49.8006C49.598 17.4472 49.358 17.6819 49.0806 17.8845C48.814 18.0872 48.51 18.2419 48.1686 18.3485C47.8273 18.4659 47.454 18.5245 47.0486 18.5245ZM54.258 18.3325V9.91652H56.098L56.274 11.2285H56.386C56.4927 10.9512 56.6313 10.7005 56.802 10.4765C56.9727 10.2419 57.186 10.0552 57.442 9.91652C57.698 9.77785 57.9967 9.70852 58.338 9.70852C58.5193 9.70852 58.6847 9.72985 58.834 9.77252C58.9833 9.80452 59.0953 9.83652 59.17 9.86852V11.8845H58.482C58.1513 11.8845 57.858 11.9325 57.602 12.0285C57.3567 12.1139 57.1487 12.2525 56.978 12.4445C56.8073 12.6365 56.6793 12.8712 56.594 13.1485C56.5193 13.4259 56.482 13.7512 56.482 14.1245V18.3325H54.258ZM62.0321 21.3405C61.6588 21.3405 61.3068 21.2605 60.9761 21.1005C60.6455 20.9512 60.3788 20.7272 60.1761 20.4285C59.9735 20.1299 59.8721 19.7725 59.8721 19.3565C59.8721 18.8872 60.0055 18.5139 60.2721 18.2365C60.5495 17.9485 60.8588 17.7352 61.2001 17.5965C60.9548 17.4579 60.7521 17.2765 60.5921 17.0525C60.4428 16.8285 60.3681 16.5672 60.3681 16.2685C60.3681 15.8525 60.5175 15.5165 60.8161 15.2605C61.1255 14.9939 61.4775 14.8232 61.8721 14.7485C61.4775 14.5032 61.1681 14.1939 60.9441 13.8205C60.7308 13.4365 60.6241 13.0099 60.6241 12.5405C60.6241 11.9325 60.7735 11.4205 61.0721 11.0045C61.3815 10.5885 61.8188 10.2739 62.3841 10.0605C62.9601 9.83652 63.6375 9.72452 64.4161 9.72452C64.7255 9.72452 65.0135 9.74052 65.2801 9.77252C65.5575 9.80452 65.8081 9.85785 66.0321 9.93252C66.4268 9.69785 66.6935 9.44185 66.8321 9.16452C66.9815 8.87652 67.0615 8.64719 67.0721 8.47652H69.1361C69.1361 8.87119 69.0615 9.21252 68.9121 9.50052C68.7735 9.78852 68.5708 10.0285 68.3041 10.2205C68.0375 10.4019 67.7175 10.5352 67.3441 10.6205C67.6215 10.8552 67.8348 11.1379 67.9841 11.4685C68.1335 11.7992 68.2081 12.1565 68.2081 12.5405C68.2081 13.1379 68.0641 13.6499 67.7761 14.0765C67.4881 14.4925 67.0775 14.8125 66.5441 15.0365C66.0215 15.2605 65.3921 15.3725 64.6561 15.3725H63.3761C63.1201 15.3725 62.9281 15.4205 62.8001 15.5165C62.6721 15.6019 62.6081 15.7299 62.6081 15.9005C62.6081 16.0392 62.6615 16.1619 62.7681 16.2685C62.8855 16.3645 63.0721 16.4125 63.3281 16.4125H66.8321C67.5361 16.4125 68.0961 16.6312 68.5121 17.0685C68.9388 17.4952 69.1521 18.0445 69.1521 18.7165C69.1521 19.2285 69.0188 19.6819 68.7521 20.0765C68.4855 20.4712 68.1175 20.7805 67.6481 21.0045C67.1788 21.2285 66.6401 21.3405 66.0321 21.3405H62.0321ZM62.9601 19.8525H65.9201C66.1121 19.8525 66.2828 19.8152 66.4321 19.7405C66.5815 19.6765 66.6988 19.5805 66.7841 19.4525C66.8695 19.3352 66.9121 19.1965 66.9121 19.0365C66.9121 18.7592 66.8268 18.5512 66.6561 18.4125C66.4855 18.2739 66.2721 18.2045 66.0161 18.2045H62.9601C62.7041 18.2045 62.4908 18.2792 62.3201 18.4285C62.1601 18.5779 62.0801 18.7752 62.0801 19.0205C62.0801 19.2659 62.1601 19.4632 62.3201 19.6125C62.4908 19.7725 62.7041 19.8525 62.9601 19.8525ZM64.4161 13.9325C64.9388 13.9325 65.3335 13.8152 65.6001 13.5805C65.8775 13.3352 66.0161 12.9885 66.0161 12.5405C66.0161 12.0925 65.8775 11.7512 65.6001 11.5165C65.3335 11.2712 64.9388 11.1485 64.4161 11.1485C63.9041 11.1485 63.5095 11.2712 63.2321 11.5165C62.9655 11.7512 62.8321 12.0925 62.8321 12.5405C62.8321 12.8285 62.8908 13.0792 63.0081 13.2925C63.1255 13.5059 63.3015 13.6659 63.5361 13.7725C63.7708 13.8792 64.0641 13.9325 64.4161 13.9325ZM70.6949 8.68452V6.76452H72.9189V8.68452H70.6949ZM70.6949 18.3325V9.91652H72.9189V18.3325H70.6949ZM78.9765 18.5245C78.0805 18.5245 77.3285 18.3699 76.7205 18.0605C76.1125 17.7405 75.6485 17.2552 75.3285 16.6045C75.0192 15.9432 74.8645 15.1165 74.8645 14.1245C74.8645 13.1112 75.0192 12.2845 75.3285 11.6445C75.6485 10.9939 76.1125 10.5085 76.7205 10.1885C77.3392 9.86852 78.0912 9.70852 78.9765 9.70852C79.5525 9.70852 80.0698 9.77785 80.5285 9.91652C80.9978 10.0552 81.4032 10.2685 81.7445 10.5565C82.0858 10.8445 82.3418 11.2019 82.5125 11.6285C82.6938 12.0445 82.7845 12.5405 82.7845 13.1165H80.5605C80.5605 12.7325 80.5018 12.4179 80.3845 12.1725C80.2672 11.9272 80.0858 11.7405 79.8405 11.6125C79.6058 11.4845 79.3072 11.4205 78.9445 11.4205C78.5178 11.4205 78.1712 11.5165 77.9045 11.7085C77.6378 11.9005 77.4405 12.1832 77.3125 12.5565C77.1845 12.9299 77.1205 13.3939 77.1205 13.9485V14.3165C77.1205 14.8605 77.1845 15.3192 77.3125 15.6925C77.4512 16.0659 77.6592 16.3485 77.9365 16.5405C78.2138 16.7219 78.5765 16.8125 79.0245 16.8125C79.3872 16.8125 79.6858 16.7485 79.9205 16.6205C80.1658 16.4925 80.3525 16.3005 80.4805 16.0445C80.6085 15.7885 80.6725 15.4792 80.6725 15.1165H82.7845C82.7845 15.6605 82.6938 16.1459 82.5125 16.5725C82.3418 16.9992 82.0858 17.3565 81.7445 17.6445C81.4138 17.9325 81.0138 18.1512 80.5445 18.3005C80.0752 18.4499 79.5525 18.5245 78.9765 18.5245ZM86.9964 18.5245C86.719 18.5245 86.4204 18.4925 86.1004 18.4285C85.791 18.3645 85.4977 18.2525 85.2204 18.0925C84.943 17.9219 84.7137 17.6819 84.5324 17.3725C84.3617 17.0525 84.2764 16.6472 84.2764 16.1565C84.2764 15.5699 84.4044 15.0845 84.6604 14.7005C84.9164 14.3165 85.279 14.0179 85.7484 13.8045C86.2284 13.5805 86.799 13.4259 87.4604 13.3405C88.1217 13.2552 88.8524 13.2125 89.6524 13.2125V12.5885C89.6524 12.3432 89.6097 12.1299 89.5244 11.9485C89.4497 11.7672 89.311 11.6232 89.1084 11.5165C88.9164 11.4099 88.6444 11.3565 88.2924 11.3565C87.9404 11.3565 87.6524 11.3992 87.4284 11.4845C87.215 11.5699 87.0604 11.6819 86.9644 11.8205C86.879 11.9485 86.8364 12.0925 86.8364 12.2525V12.4445H84.6764C84.6657 12.3912 84.6604 12.3432 84.6604 12.3005C84.6604 12.2472 84.6604 12.1832 84.6604 12.1085C84.6604 11.6179 84.8097 11.1965 85.1084 10.8445C85.407 10.4819 85.8284 10.2045 86.3724 10.0125C86.9164 9.82052 87.551 9.72452 88.2764 9.72452C89.055 9.72452 89.7057 9.82585 90.2284 10.0285C90.7617 10.2312 91.167 10.5299 91.4444 10.9245C91.7324 11.3192 91.8764 11.8152 91.8764 12.4125V16.2365C91.8764 16.4285 91.9297 16.5725 92.0364 16.6685C92.1537 16.7539 92.2817 16.7965 92.4204 16.7965H92.9484V18.2525C92.8417 18.3059 92.6764 18.3592 92.4524 18.4125C92.2284 18.4765 91.9564 18.5085 91.6364 18.5085C91.327 18.5085 91.0497 18.4605 90.8044 18.3645C90.5697 18.2792 90.3724 18.1565 90.2124 17.9965C90.0524 17.8259 89.9404 17.6232 89.8764 17.3885H89.7644C89.583 17.6125 89.359 17.8099 89.0924 17.9805C88.8364 18.1512 88.5324 18.2845 88.1804 18.3805C87.839 18.4765 87.4444 18.5245 86.9964 18.5245ZM87.7484 16.8445C88.047 16.8445 88.3137 16.8019 88.5484 16.7165C88.783 16.6205 88.9804 16.4979 89.1404 16.3485C89.3004 16.1885 89.423 15.9965 89.5084 15.7725C89.6044 15.5485 89.6524 15.3085 89.6524 15.0525V14.5885C89.055 14.5885 88.5217 14.6312 88.0524 14.7165C87.583 14.7912 87.2097 14.9245 86.9324 15.1165C86.6657 15.3085 86.5324 15.5752 86.5324 15.9165C86.5324 16.1085 86.5804 16.2739 86.6764 16.4125C86.7724 16.5512 86.911 16.6579 87.0924 16.7325C87.2737 16.8072 87.4924 16.8445 87.7484 16.8445ZM94.3736 18.3325V6.76452H96.5976V18.3325H94.3736ZM99.2312 18.3325V16.0445H101.551V18.3325H99.2312ZM103.257 18.3325L107.481 7.35652H110.425L114.649 18.3325H112.073L111.289 16.1725H106.505L105.721 18.3325H103.257ZM107.193 14.2525H110.601L109.625 11.5485C109.583 11.4312 109.529 11.2925 109.465 11.1325C109.412 10.9619 109.353 10.7752 109.289 10.5725C109.225 10.3699 109.161 10.1725 109.097 9.98052C109.044 9.77785 108.991 9.59652 108.937 9.43652H108.841C108.788 9.63919 108.719 9.87919 108.633 10.1565C108.548 10.4232 108.463 10.6845 108.377 10.9405C108.292 11.1859 108.223 11.3885 108.169 11.5485L107.193 14.2525ZM116.276 18.3325V7.35652H118.66V18.3325H116.276Z" fill="black"/>
</svg>
