<svg width="43" height="43" viewBox="0 0 43 43" fill="none" xmlns="http://www.w3.org/2000/svg">
<circle cx="21.5" cy="21.5" r="21.5" fill="#A6E1DB"/>
<path d="M26.956 20.2679V22.6639C26.956 22.823 26.8928 22.9757 26.7803 23.0882C26.6677 23.2007 26.5151 23.2639 26.356 23.2639H23.36V26.2599C23.36 26.419 23.2968 26.5717 23.1843 26.6842C23.0717 26.7967 22.9191 26.8599 22.76 26.8599H20.364C20.2049 26.8599 20.0522 26.7967 19.9397 26.6842C19.8272 26.5717 19.764 26.419 19.764 26.2599V23.2639H16.7707C16.6115 23.2639 16.4589 23.2007 16.3464 23.0882C16.2339 22.9757 16.1707 22.823 16.1707 22.6639V20.2679C16.1707 20.1088 16.2339 19.9562 16.3464 19.8436C16.4589 19.7311 16.6115 19.6679 16.7707 19.6679H19.7667V16.6719C19.767 16.513 19.8304 16.3607 19.9429 16.2485C20.0553 16.1363 20.2078 16.0732 20.3667 16.0732H22.7627C22.9218 16.0732 23.0744 16.1365 23.1869 16.249C23.2994 16.3615 23.3627 16.5141 23.3627 16.6732V19.6679H26.3573C26.5165 19.6679 26.6691 19.7311 26.7816 19.8436C26.8941 19.9562 26.956 20.1088 26.956 20.2679Z" stroke="black" stroke-opacity="0.75" stroke-width="1.5" stroke-linecap="round" stroke-linejoin="round"/>
<path d="M33.1253 22.1877V15.1477C33.1253 14.6076 32.9553 14.0811 32.6394 13.643C32.3236 13.2048 31.8778 12.8771 31.3653 12.7064L24.8133 10.5211C22.7019 9.82631 20.4234 9.82631 18.312 10.5211L11.76 12.7051C11.2477 12.8757 10.8021 13.2032 10.4863 13.6411C10.1704 14.079 10.0003 14.6051 10 15.1451V22.1851C10.0002 23.9229 10.441 25.6322 11.2811 27.1534C12.1213 28.6746 13.3333 29.9581 14.804 30.8837L20.2013 34.2757C20.6098 34.5303 21.0814 34.6653 21.5627 34.6653C22.0439 34.6653 22.5156 34.5303 22.924 34.2757L28.32 30.8837C29.7908 29.9583 31.0029 28.6752 31.8433 27.1542C32.6836 25.6333 33.1247 23.9241 33.1253 22.1864" stroke="black" stroke-opacity="0.75" stroke-width="1.5" stroke-linecap="round" stroke-linejoin="round"/>
</svg>
