<svg width="61" height="61" viewBox="0 0 61 61" fill="none" xmlns="http://www.w3.org/2000/svg">
<g clip-path="url(#clip0_83_452)">
<path d="M21.3874 5.37823C17.9027 5.71344 15.3085 8.85995 15.6437 12.3447L16.0512 16.5814L20.288 16.1738L19.8804 11.9371C19.7657 10.7445 20.6024 9.72969 21.795 9.61496L34.5052 8.39229C35.6978 8.27756 36.7126 9.11423 36.8273 10.3069L37.2349 14.5436L41.4716 14.136L41.0641 9.89932C40.7288 6.4146 37.5823 3.82034 34.0976 4.15556L21.3874 5.37823ZM7.78155 19.5149C6.09607 19.677 4.54404 20.5021 3.46687 21.8085C2.38971 23.115 1.87565 24.7958 2.03779 26.4813L4.48313 51.9017C4.64527 53.5872 5.47032 55.1392 6.77678 56.2164C8.08324 57.2935 9.76409 57.8076 11.4496 57.6455L53.8169 53.5699C57.3249 53.2324 59.8981 50.1115 59.5606 46.6034L57.1153 21.1831C56.9532 19.4976 56.1281 17.9455 54.8216 16.8684C53.5152 15.7912 51.8343 15.2772 50.1489 15.4393L7.78155 19.5149ZM29.5574 23.6331C31.2529 23.4688 32.9641 23.6404 34.5932 24.1381C36.2223 24.6357 37.7373 25.4497 39.0516 26.5333C40.3659 27.6169 41.4537 28.949 42.2528 30.4534C43.0519 31.9577 43.5465 33.6049 43.7085 35.3005C43.8728 36.996 43.7011 38.7073 43.2035 40.3364C42.7058 41.9655 41.8919 43.4805 40.8083 44.7948C39.7247 46.1091 38.3926 47.1969 36.8882 47.9959C35.3839 48.795 33.7367 49.2897 32.041 49.4517C30.3456 49.6159 28.6343 49.4443 27.0052 48.9467C25.3761 48.449 23.8611 47.6351 22.5468 46.5515C21.2325 45.4678 20.1447 44.1358 19.3456 42.6314C18.5466 41.127 18.0519 39.4799 17.8899 37.7842C17.7257 36.0887 17.8973 34.3775 18.3949 32.7484C18.8926 31.1193 19.7065 29.6043 20.7901 28.29C21.8737 26.9757 23.2058 25.8879 24.7102 25.0888C26.2146 24.2897 27.8617 23.795 29.5574 23.6331ZM28.0695 30.3911L28.4771 34.6278L24.2403 35.0353L24.6479 39.2721L28.8846 38.8645L29.2922 43.1012L33.5289 42.6937L33.1214 38.457L37.3581 38.0494L36.9505 33.8127L32.7138 34.2202L32.3062 29.9835L28.0695 30.3911Z" fill="white"/>
</g>
<defs>
<clipPath id="clip0_83_452">
<rect width="55.3318" height="55.3318" fill="white" transform="translate(0 5.29785) rotate(-5.49473)"/>
</clipPath>
</defs>
</svg>
