<svg width="341" height="302" viewBox="0 0 341 302" fill="none" xmlns="http://www.w3.org/2000/svg">
<rect width="341" height="302" rx="5" fill="white"/>
<rect x="131" y="115.307" width="185.163" height="30.0816" rx="3.77551" fill="#E5E5E5"/>
<path d="M147.129 134.493C146.678 134.493 146.243 134.444 145.824 134.348C145.405 134.259 145.035 134.114 144.713 133.913C144.39 133.703 144.137 133.442 143.951 133.127C143.766 132.805 143.674 132.423 143.674 131.98C143.674 131.931 143.674 131.887 143.674 131.847C143.682 131.798 143.686 131.758 143.686 131.726H145.039C145.039 131.75 145.035 131.786 145.027 131.835C145.027 131.883 145.027 131.923 145.027 131.955C145.027 132.254 145.115 132.507 145.293 132.717C145.47 132.926 145.715 133.083 146.03 133.188C146.352 133.293 146.718 133.345 147.129 133.345C147.354 133.345 147.572 133.333 147.781 133.309C147.991 133.276 148.18 133.232 148.349 133.176C148.526 133.111 148.679 133.035 148.808 132.946C148.937 132.85 149.038 132.737 149.11 132.608C149.183 132.479 149.219 132.33 149.219 132.161C149.219 131.903 149.143 131.69 148.99 131.521C148.845 131.351 148.643 131.21 148.385 131.098C148.136 130.985 147.85 130.884 147.528 130.796C147.214 130.707 146.887 130.618 146.549 130.53C146.211 130.441 145.881 130.337 145.558 130.216C145.244 130.095 144.958 129.95 144.701 129.781C144.451 129.604 144.249 129.386 144.096 129.128C143.951 128.863 143.879 128.54 143.879 128.162C143.879 127.799 143.956 127.477 144.109 127.195C144.262 126.913 144.483 126.68 144.773 126.495C145.063 126.301 145.409 126.156 145.812 126.06C146.215 125.963 146.67 125.915 147.177 125.915C147.612 125.915 148.023 125.963 148.41 126.06C148.796 126.148 149.135 126.289 149.424 126.483C149.714 126.676 149.94 126.921 150.101 127.219C150.27 127.518 150.355 127.872 150.355 128.283V128.428H149.014V128.271C149.014 128.013 148.937 127.795 148.784 127.618C148.631 127.441 148.418 127.304 148.144 127.207C147.87 127.111 147.552 127.062 147.189 127.062C146.762 127.062 146.404 127.107 146.114 127.195C145.824 127.276 145.603 127.393 145.45 127.546C145.305 127.691 145.232 127.868 145.232 128.077C145.232 128.311 145.309 128.504 145.462 128.657C145.615 128.802 145.816 128.927 146.066 129.032C146.324 129.136 146.609 129.233 146.924 129.322C147.246 129.402 147.572 129.491 147.902 129.587C148.24 129.676 148.567 129.781 148.881 129.902C149.203 130.022 149.489 130.171 149.739 130.349C149.996 130.526 150.202 130.747 150.355 131.013C150.508 131.271 150.584 131.589 150.584 131.968C150.584 132.564 150.435 133.051 150.137 133.429C149.839 133.8 149.428 134.07 148.905 134.239C148.389 134.408 147.797 134.493 147.129 134.493ZM152.226 134.348V125.613H153.483V128.754H153.568C153.721 128.561 153.894 128.399 154.087 128.271C154.28 128.134 154.498 128.029 154.739 127.956C154.981 127.884 155.247 127.848 155.537 127.848C155.94 127.848 156.294 127.92 156.6 128.065C156.906 128.202 157.144 128.428 157.313 128.742C157.49 129.056 157.579 129.479 157.579 130.01V134.348H156.322V130.204C156.322 129.962 156.29 129.761 156.225 129.6C156.169 129.438 156.085 129.31 155.972 129.213C155.859 129.116 155.726 129.048 155.573 129.008C155.42 128.967 155.251 128.947 155.066 128.947C154.776 128.947 154.51 129.016 154.268 129.153C154.035 129.289 153.845 129.483 153.7 129.732C153.555 129.982 153.483 130.28 153.483 130.627V134.348H152.226ZM162.1 134.493C161.44 134.493 160.88 134.376 160.421 134.142C159.97 133.901 159.627 133.534 159.394 133.043C159.168 132.552 159.056 131.927 159.056 131.17C159.056 130.405 159.168 129.781 159.394 129.298C159.627 128.806 159.97 128.444 160.421 128.21C160.88 127.969 161.44 127.848 162.1 127.848C162.777 127.848 163.34 127.969 163.792 128.21C164.243 128.444 164.581 128.806 164.806 129.298C165.04 129.781 165.157 130.405 165.157 131.17C165.157 131.927 165.04 132.552 164.806 133.043C164.581 133.534 164.243 133.901 163.792 134.142C163.34 134.376 162.777 134.493 162.1 134.493ZM162.1 133.454C162.503 133.454 162.833 133.377 163.091 133.224C163.349 133.063 163.538 132.821 163.659 132.499C163.787 132.177 163.852 131.77 163.852 131.279V131.061C163.852 130.57 163.787 130.163 163.659 129.841C163.538 129.519 163.349 129.281 163.091 129.128C162.833 128.967 162.503 128.887 162.1 128.887C161.705 128.887 161.379 128.967 161.121 129.128C160.864 129.281 160.67 129.519 160.542 129.841C160.421 130.163 160.36 130.57 160.36 131.061V131.279C160.36 131.77 160.421 132.177 160.542 132.499C160.67 132.821 160.864 133.063 161.121 133.224C161.379 133.377 161.705 133.454 162.1 133.454ZM167.84 134.348L165.931 127.993H167.235L168.166 131.472C168.214 131.641 168.254 131.819 168.287 132.004C168.327 132.189 168.363 132.354 168.395 132.499C168.427 132.644 168.452 132.745 168.468 132.801H168.54C168.572 132.656 168.609 132.491 168.649 132.306C168.689 132.121 168.725 131.951 168.758 131.798C168.79 131.637 168.814 131.517 168.83 131.436L169.676 127.993H171.029L171.899 131.448C171.931 131.577 171.963 131.726 171.996 131.895C172.036 132.056 172.072 132.217 172.104 132.378C172.145 132.539 172.173 132.68 172.189 132.801H172.261C172.286 132.688 172.314 132.556 172.346 132.403C172.386 132.241 172.427 132.08 172.467 131.919C172.507 131.758 172.543 131.609 172.576 131.472L173.494 127.993H174.69L172.793 134.348H171.488L170.715 131.182C170.683 131.029 170.642 130.852 170.594 130.651C170.546 130.449 170.501 130.248 170.461 130.047C170.421 129.845 170.389 129.668 170.365 129.515H170.292C170.276 129.604 170.252 129.732 170.22 129.902C170.195 130.071 170.159 130.264 170.111 130.482C170.063 130.699 170.006 130.933 169.942 131.182L169.144 134.348H167.84ZM178.56 134.348V127.993H179.599L179.707 128.899H179.792C179.937 128.665 180.102 128.472 180.287 128.319C180.481 128.166 180.694 128.049 180.928 127.969C181.169 127.888 181.427 127.848 181.701 127.848C182.096 127.848 182.438 127.928 182.728 128.089C183.026 128.25 183.251 128.52 183.404 128.899H183.489C183.634 128.673 183.803 128.484 183.996 128.331C184.19 128.17 184.407 128.049 184.649 127.969C184.899 127.888 185.164 127.848 185.446 127.848C185.825 127.848 186.159 127.916 186.449 128.053C186.739 128.182 186.969 128.403 187.138 128.718C187.307 129.024 187.391 129.434 187.391 129.95V134.348H186.135V130.179C186.135 129.938 186.107 129.741 186.05 129.587C185.994 129.426 185.917 129.302 185.821 129.213C185.724 129.116 185.607 129.048 185.47 129.008C185.333 128.967 185.184 128.947 185.023 128.947C184.758 128.947 184.52 129.02 184.311 129.165C184.101 129.302 183.932 129.495 183.803 129.745C183.674 129.994 183.61 130.288 183.61 130.627V134.348H182.353V130.179C182.353 129.938 182.325 129.741 182.269 129.587C182.212 129.426 182.136 129.302 182.039 129.213C181.943 129.116 181.826 129.048 181.689 129.008C181.552 128.967 181.407 128.947 181.254 128.947C180.988 128.947 180.746 129.02 180.529 129.165C180.312 129.302 180.138 129.495 180.009 129.745C179.881 129.994 179.816 130.288 179.816 130.627V134.348H178.56ZM191.83 134.493C191.177 134.493 190.629 134.376 190.186 134.142C189.752 133.901 189.421 133.534 189.196 133.043C188.97 132.552 188.857 131.927 188.857 131.17C188.857 130.405 188.97 129.781 189.196 129.298C189.421 128.806 189.756 128.444 190.199 128.21C190.642 127.969 191.193 127.848 191.854 127.848C192.458 127.848 192.961 127.965 193.364 128.198C193.775 128.424 194.085 128.77 194.294 129.237C194.504 129.704 194.608 130.292 194.608 131.001V131.484H190.15C190.166 131.935 190.235 132.314 190.356 132.62C190.476 132.918 190.658 133.139 190.899 133.284C191.149 133.421 191.463 133.49 191.842 133.49C192.075 133.49 192.285 133.462 192.47 133.405C192.655 133.341 192.812 133.252 192.941 133.139C193.07 133.019 193.171 132.878 193.243 132.717C193.316 132.547 193.352 132.358 193.352 132.149H194.584C194.584 132.527 194.52 132.862 194.391 133.152C194.262 133.442 194.073 133.687 193.823 133.889C193.581 134.082 193.291 134.231 192.953 134.336C192.615 134.44 192.24 134.493 191.83 134.493ZM190.174 130.566H193.291C193.291 130.252 193.255 129.99 193.183 129.781C193.118 129.563 193.022 129.386 192.893 129.249C192.764 129.112 192.611 129.016 192.434 128.959C192.256 128.895 192.055 128.863 191.83 128.863C191.491 128.863 191.201 128.923 190.96 129.044C190.726 129.165 190.545 129.354 190.416 129.612C190.287 129.861 190.207 130.179 190.174 130.566ZM200.03 134.348L198.122 127.993H199.426L200.357 131.472C200.405 131.641 200.445 131.819 200.477 132.004C200.518 132.189 200.554 132.354 200.586 132.499C200.618 132.644 200.643 132.745 200.659 132.801H200.731C200.763 132.656 200.8 132.491 200.84 132.306C200.88 132.121 200.916 131.951 200.949 131.798C200.981 131.637 201.005 131.517 201.021 131.436L201.867 127.993H203.22L204.09 131.448C204.122 131.577 204.154 131.726 204.187 131.895C204.227 132.056 204.263 132.217 204.295 132.378C204.336 132.539 204.364 132.68 204.38 132.801H204.452C204.476 132.688 204.505 132.556 204.537 132.403C204.577 132.241 204.617 132.08 204.658 131.919C204.698 131.758 204.734 131.609 204.766 131.472L205.685 127.993H206.881L204.984 134.348H203.679L202.906 131.182C202.874 131.029 202.833 130.852 202.785 130.651C202.737 130.449 202.692 130.248 202.652 130.047C202.612 129.845 202.58 129.668 202.556 129.515H202.483C202.467 129.604 202.443 129.732 202.411 129.902C202.386 130.071 202.35 130.264 202.302 130.482C202.253 130.699 202.197 130.933 202.133 131.182L201.335 134.348H200.03ZM208.031 134.348V125.613H209.288V128.754H209.372C209.525 128.561 209.699 128.399 209.892 128.271C210.085 128.134 210.303 128.029 210.544 127.956C210.786 127.884 211.052 127.848 211.342 127.848C211.744 127.848 212.099 127.92 212.405 128.065C212.711 128.202 212.949 128.428 213.118 128.742C213.295 129.056 213.383 129.479 213.383 130.01V134.348H212.127V130.204C212.127 129.962 212.095 129.761 212.03 129.6C211.974 129.438 211.889 129.31 211.777 129.213C211.664 129.116 211.531 129.048 211.378 129.008C211.225 128.967 211.056 128.947 210.871 128.947C210.581 128.947 210.315 129.016 210.073 129.153C209.84 129.289 209.65 129.483 209.505 129.732C209.36 129.982 209.288 130.28 209.288 130.627V134.348H208.031ZM217.832 134.493C217.18 134.493 216.632 134.376 216.189 134.142C215.754 133.901 215.424 133.534 215.199 133.043C214.973 132.552 214.86 131.927 214.86 131.17C214.86 130.405 214.973 129.781 215.199 129.298C215.424 128.806 215.758 128.444 216.201 128.21C216.644 127.969 217.196 127.848 217.857 127.848C218.461 127.848 218.964 127.965 219.367 128.198C219.778 128.424 220.088 128.77 220.297 129.237C220.507 129.704 220.611 130.292 220.611 131.001V131.484H216.153C216.169 131.935 216.238 132.314 216.358 132.62C216.479 132.918 216.661 133.139 216.902 133.284C217.152 133.421 217.466 133.49 217.845 133.49C218.078 133.49 218.288 133.462 218.473 133.405C218.658 133.341 218.815 133.252 218.944 133.139C219.073 133.019 219.174 132.878 219.246 132.717C219.318 132.547 219.355 132.358 219.355 132.149H220.587C220.587 132.527 220.523 132.862 220.394 133.152C220.265 133.442 220.076 133.687 219.826 133.889C219.584 134.082 219.294 134.231 218.956 134.336C218.618 134.44 218.243 134.493 217.832 134.493ZM216.177 130.566H219.294C219.294 130.252 219.258 129.99 219.186 129.781C219.121 129.563 219.025 129.386 218.896 129.249C218.767 129.112 218.614 129.016 218.437 128.959C218.259 128.895 218.058 128.863 217.832 128.863C217.494 128.863 217.204 128.923 216.963 129.044C216.729 129.165 216.548 129.354 216.419 129.612C216.29 129.861 216.209 130.179 216.177 130.566ZM222.13 134.348V127.993H223.169L223.278 129.02H223.35C223.423 128.818 223.515 128.629 223.628 128.452C223.749 128.275 223.902 128.13 224.087 128.017C224.281 127.904 224.514 127.848 224.788 127.848C224.917 127.848 225.03 127.86 225.126 127.884C225.231 127.908 225.312 127.928 225.368 127.944V129.128H224.945C224.687 129.128 224.458 129.169 224.256 129.249C224.063 129.33 223.898 129.451 223.761 129.612C223.632 129.765 223.536 129.954 223.471 130.179C223.415 130.405 223.387 130.659 223.387 130.941V134.348H222.13ZM229.064 134.493C228.412 134.493 227.864 134.376 227.421 134.142C226.986 133.901 226.656 133.534 226.43 133.043C226.205 132.552 226.092 131.927 226.092 131.17C226.092 130.405 226.205 129.781 226.43 129.298C226.656 128.806 226.99 128.444 227.433 128.21C227.876 127.969 228.428 127.848 229.088 127.848C229.692 127.848 230.196 127.965 230.598 128.198C231.009 128.424 231.319 128.77 231.529 129.237C231.738 129.704 231.843 130.292 231.843 131.001V131.484H227.385C227.401 131.935 227.469 132.314 227.59 132.62C227.711 132.918 227.892 133.139 228.134 133.284C228.384 133.421 228.698 133.49 229.076 133.49C229.31 133.49 229.519 133.462 229.704 133.405C229.89 133.341 230.047 133.252 230.176 133.139C230.305 133.019 230.405 132.878 230.478 132.717C230.55 132.547 230.586 132.358 230.586 132.149H231.819C231.819 132.527 231.754 132.862 231.625 133.152C231.497 133.442 231.307 133.687 231.058 133.889C230.816 134.082 230.526 134.231 230.188 134.336C229.849 134.44 229.475 134.493 229.064 134.493ZM227.409 130.566H230.526C230.526 130.252 230.49 129.99 230.417 129.781C230.353 129.563 230.256 129.386 230.127 129.249C229.998 129.112 229.845 129.016 229.668 128.959C229.491 128.895 229.29 128.863 229.064 128.863C228.726 128.863 228.436 128.923 228.194 129.044C227.961 129.165 227.779 129.354 227.651 129.612C227.522 129.861 227.441 130.179 227.409 130.566ZM236.081 134.348V127.993H237.12L237.229 128.899H237.313C237.458 128.665 237.623 128.472 237.809 128.319C238.002 128.166 238.215 128.049 238.449 127.969C238.691 127.888 238.948 127.848 239.222 127.848C239.617 127.848 239.959 127.928 240.249 128.089C240.547 128.25 240.773 128.52 240.926 128.899H241.01C241.155 128.673 241.324 128.484 241.518 128.331C241.711 128.17 241.929 128.049 242.17 127.969C242.42 127.888 242.686 127.848 242.968 127.848C243.346 127.848 243.68 127.916 243.97 128.053C244.26 128.182 244.49 128.403 244.659 128.718C244.828 129.024 244.913 129.434 244.913 129.95V134.348H243.656V130.179C243.656 129.938 243.628 129.741 243.572 129.587C243.515 129.426 243.439 129.302 243.342 129.213C243.245 129.116 243.129 129.048 242.992 129.008C242.855 128.967 242.706 128.947 242.545 128.947C242.279 128.947 242.041 129.02 241.832 129.165C241.622 129.302 241.453 129.495 241.324 129.745C241.196 129.994 241.131 130.288 241.131 130.627V134.348H239.875V130.179C239.875 129.938 239.846 129.741 239.79 129.587C239.734 129.426 239.657 129.302 239.561 129.213C239.464 129.116 239.347 129.048 239.21 129.008C239.073 128.967 238.928 128.947 238.775 128.947C238.509 128.947 238.268 129.02 238.05 129.165C237.833 129.302 237.66 129.495 237.531 129.745C237.402 129.994 237.337 130.288 237.337 130.627V134.348H236.081ZM247.406 136.547C247.164 136.547 246.963 136.526 246.802 136.486C246.641 136.454 246.54 136.434 246.5 136.426V135.52H247.104C247.281 135.52 247.458 135.479 247.635 135.399C247.821 135.318 247.986 135.189 248.131 135.012C248.276 134.835 248.396 134.613 248.493 134.348L246.016 127.993H247.333L248.566 131.158C248.622 131.303 248.682 131.484 248.747 131.702C248.819 131.919 248.888 132.141 248.952 132.366C249.025 132.592 249.085 132.793 249.133 132.97H249.194C249.234 132.85 249.274 132.713 249.315 132.56C249.363 132.398 249.411 132.233 249.46 132.064C249.508 131.895 249.556 131.734 249.605 131.581C249.653 131.42 249.693 131.283 249.725 131.17L250.752 127.993H252.033L249.882 134.106C249.762 134.444 249.629 134.762 249.484 135.06C249.339 135.358 249.17 135.616 248.976 135.834C248.791 136.059 248.57 136.232 248.312 136.353C248.054 136.482 247.752 136.547 247.406 136.547ZM257.49 134.493C257.128 134.493 256.842 134.424 256.633 134.287C256.431 134.142 256.286 133.961 256.198 133.744C256.117 133.518 256.077 133.28 256.077 133.031V129.032H255.279V127.993H256.101L256.33 126.217H257.333V127.993H258.481V129.032H257.333V132.886C257.333 133.071 257.374 133.212 257.454 133.309C257.535 133.405 257.668 133.454 257.853 133.454H258.481V134.299C258.4 134.332 258.3 134.36 258.179 134.384C258.066 134.416 257.949 134.44 257.829 134.456C257.708 134.481 257.595 134.493 257.49 134.493ZM262.537 134.493C261.876 134.493 261.316 134.376 260.857 134.142C260.406 133.901 260.064 133.534 259.83 133.043C259.605 132.552 259.492 131.927 259.492 131.17C259.492 130.405 259.605 129.781 259.83 129.298C260.064 128.806 260.406 128.444 260.857 128.21C261.316 127.969 261.876 127.848 262.537 127.848C263.213 127.848 263.777 127.969 264.228 128.21C264.679 128.444 265.017 128.806 265.243 129.298C265.477 129.781 265.593 130.405 265.593 131.17C265.593 131.927 265.477 132.552 265.243 133.043C265.017 133.534 264.679 133.901 264.228 134.142C263.777 134.376 263.213 134.493 262.537 134.493ZM262.537 133.454C262.939 133.454 263.27 133.377 263.527 133.224C263.785 133.063 263.974 132.821 264.095 132.499C264.224 132.177 264.289 131.77 264.289 131.279V131.061C264.289 130.57 264.224 130.163 264.095 129.841C263.974 129.519 263.785 129.281 263.527 129.128C263.27 128.967 262.939 128.887 262.537 128.887C262.142 128.887 261.816 128.967 261.558 129.128C261.3 129.281 261.107 129.519 260.978 129.841C260.857 130.163 260.797 130.57 260.797 131.061V131.279C260.797 131.77 260.857 132.177 260.978 132.499C261.107 132.821 261.3 133.063 261.558 133.224C261.816 133.377 262.142 133.454 262.537 133.454ZM269.822 134.493C269.162 134.493 268.602 134.376 268.143 134.142C267.692 133.901 267.349 133.534 267.116 133.043C266.89 132.552 266.777 131.927 266.777 131.17C266.777 130.405 266.89 129.781 267.116 129.298C267.349 128.806 267.692 128.444 268.143 128.21C268.602 127.969 269.162 127.848 269.822 127.848C270.499 127.848 271.062 127.969 271.513 128.21C271.964 128.444 272.303 128.806 272.528 129.298C272.762 129.781 272.879 130.405 272.879 131.17C272.879 131.927 272.762 132.552 272.528 133.043C272.303 133.534 271.964 133.901 271.513 134.142C271.062 134.376 270.499 134.493 269.822 134.493ZM269.822 133.454C270.225 133.454 270.555 133.377 270.813 133.224C271.07 133.063 271.26 132.821 271.381 132.499C271.509 132.177 271.574 131.77 271.574 131.279V131.061C271.574 130.57 271.509 130.163 271.381 129.841C271.26 129.519 271.07 129.281 270.813 129.128C270.555 128.967 270.225 128.887 269.822 128.887C269.427 128.887 269.101 128.967 268.843 129.128C268.586 129.281 268.392 129.519 268.263 129.841C268.143 130.163 268.082 130.57 268.082 131.061V131.279C268.082 131.77 268.143 132.177 268.263 132.499C268.392 132.821 268.586 133.063 268.843 133.224C269.101 133.377 269.427 133.454 269.822 133.454ZM274.401 134.348V125.613H275.658V134.348H274.401ZM279.865 134.493C279.422 134.493 279.032 134.444 278.693 134.348C278.355 134.251 278.073 134.118 277.848 133.949C277.622 133.78 277.449 133.578 277.328 133.345C277.215 133.103 277.159 132.837 277.159 132.547C277.159 132.507 277.159 132.471 277.159 132.439C277.167 132.407 277.171 132.378 277.171 132.354H278.416C278.416 132.378 278.416 132.403 278.416 132.427C278.416 132.443 278.416 132.463 278.416 132.487C278.416 132.737 278.484 132.938 278.621 133.091C278.758 133.236 278.939 133.341 279.165 133.405C279.398 133.462 279.652 133.49 279.926 133.49C280.167 133.49 280.389 133.462 280.59 133.405C280.8 133.341 280.969 133.248 281.098 133.127C281.235 133.007 281.303 132.854 281.303 132.668C281.303 132.427 281.218 132.241 281.049 132.113C280.88 131.984 280.659 131.883 280.385 131.811C280.111 131.73 279.825 131.645 279.527 131.557C279.261 131.484 278.995 131.408 278.73 131.327C278.472 131.239 278.238 131.126 278.029 130.989C277.819 130.852 277.65 130.679 277.521 130.469C277.393 130.26 277.328 129.998 277.328 129.684C277.328 129.386 277.393 129.124 277.521 128.899C277.65 128.673 277.828 128.484 278.053 128.331C278.287 128.178 278.56 128.061 278.875 127.981C279.197 127.9 279.547 127.86 279.926 127.86C280.32 127.86 280.671 127.904 280.977 127.993C281.283 128.073 281.541 128.19 281.75 128.343C281.968 128.496 282.133 128.681 282.245 128.899C282.358 129.108 282.415 129.334 282.415 129.575C282.415 129.624 282.411 129.676 282.402 129.732C282.402 129.781 282.402 129.813 282.402 129.829H281.17V129.72C281.17 129.559 281.126 129.414 281.037 129.285C280.949 129.157 280.808 129.052 280.614 128.971C280.429 128.891 280.179 128.851 279.865 128.851C279.656 128.851 279.471 128.871 279.31 128.911C279.148 128.943 279.016 128.991 278.911 129.056C278.806 129.12 278.726 129.197 278.669 129.285C278.621 129.374 278.597 129.475 278.597 129.587C278.597 129.773 278.661 129.918 278.79 130.022C278.927 130.119 279.104 130.204 279.322 130.276C279.539 130.341 279.773 130.413 280.022 130.494C280.312 130.574 280.606 130.659 280.904 130.747C281.202 130.828 281.476 130.933 281.726 131.061C281.984 131.19 282.189 131.368 282.342 131.593C282.503 131.819 282.584 132.121 282.584 132.499C282.584 132.846 282.515 133.148 282.378 133.405C282.241 133.663 282.048 133.872 281.798 134.034C281.557 134.187 281.271 134.299 280.941 134.372C280.61 134.452 280.252 134.493 279.865 134.493ZM288.425 134.493C288.224 134.493 288.006 134.468 287.773 134.42C287.539 134.372 287.318 134.283 287.108 134.154C286.907 134.025 286.742 133.848 286.613 133.623C286.484 133.389 286.42 133.087 286.42 132.717C286.42 132.282 286.52 131.923 286.722 131.641C286.923 131.359 287.205 131.138 287.567 130.977C287.93 130.816 288.361 130.703 288.86 130.639C289.367 130.574 289.919 130.542 290.515 130.542V129.914C290.515 129.704 290.479 129.519 290.406 129.358C290.342 129.197 290.217 129.072 290.032 128.983C289.855 128.895 289.597 128.851 289.259 128.851C288.92 128.851 288.655 128.895 288.461 128.983C288.276 129.064 288.143 129.169 288.063 129.298C287.99 129.418 287.954 129.551 287.954 129.696V129.877H286.746C286.738 129.837 286.734 129.797 286.734 129.757C286.734 129.716 286.734 129.668 286.734 129.612C286.734 129.233 286.838 128.915 287.048 128.657C287.265 128.391 287.567 128.19 287.954 128.053C288.34 127.916 288.788 127.848 289.295 127.848C289.843 127.848 290.298 127.928 290.66 128.089C291.031 128.242 291.309 128.464 291.494 128.754C291.679 129.044 291.772 129.394 291.772 129.805V133.031C291.772 133.184 291.808 133.293 291.88 133.357C291.961 133.421 292.054 133.454 292.158 133.454H292.593V134.299C292.497 134.34 292.376 134.38 292.231 134.42C292.086 134.46 291.917 134.481 291.723 134.481C291.506 134.481 291.321 134.44 291.168 134.36C291.023 134.287 290.902 134.183 290.805 134.046C290.717 133.901 290.656 133.74 290.624 133.562H290.551C290.406 133.748 290.229 133.913 290.02 134.058C289.818 134.195 289.585 134.299 289.319 134.372C289.053 134.452 288.755 134.493 288.425 134.493ZM288.775 133.454C289.025 133.454 289.255 133.417 289.464 133.345C289.682 133.264 289.867 133.156 290.02 133.019C290.173 132.874 290.294 132.705 290.382 132.511C290.471 132.31 290.515 132.092 290.515 131.859V131.436C289.959 131.436 289.472 131.468 289.053 131.533C288.634 131.597 288.308 131.718 288.075 131.895C287.841 132.064 287.724 132.302 287.724 132.608C287.724 132.793 287.765 132.95 287.845 133.079C287.926 133.2 288.046 133.293 288.208 133.357C288.369 133.421 288.558 133.454 288.775 133.454ZM293.702 134.348V127.993H294.741L294.85 129.02H294.923C294.995 128.818 295.088 128.629 295.2 128.452C295.321 128.275 295.474 128.13 295.66 128.017C295.853 127.904 296.086 127.848 296.36 127.848C296.489 127.848 296.602 127.86 296.699 127.884C296.803 127.908 296.884 127.928 296.94 127.944V129.128H296.517C296.26 129.128 296.03 129.169 295.829 129.249C295.635 129.33 295.47 129.451 295.333 129.612C295.205 129.765 295.108 129.954 295.043 130.179C294.987 130.405 294.959 130.659 294.959 130.941V134.348H293.702ZM300.636 134.493C299.984 134.493 299.436 134.376 298.993 134.142C298.558 133.901 298.228 133.534 298.003 133.043C297.777 132.552 297.664 131.927 297.664 131.17C297.664 130.405 297.777 129.781 298.003 129.298C298.228 128.806 298.562 128.444 299.005 128.21C299.448 127.969 300 127.848 300.661 127.848C301.265 127.848 301.768 127.965 302.171 128.198C302.582 128.424 302.892 128.77 303.101 129.237C303.311 129.704 303.415 130.292 303.415 131.001V131.484H298.957C298.973 131.935 299.042 132.314 299.163 132.62C299.283 132.918 299.465 133.139 299.706 133.284C299.956 133.421 300.27 133.49 300.649 133.49C300.882 133.49 301.092 133.462 301.277 133.405C301.462 133.341 301.619 133.252 301.748 133.139C301.877 133.019 301.978 132.878 302.05 132.717C302.123 132.547 302.159 132.358 302.159 132.149H303.391C303.391 132.527 303.327 132.862 303.198 133.152C303.069 133.442 302.88 133.687 302.63 133.889C302.388 134.082 302.098 134.231 301.76 134.336C301.422 134.44 301.047 134.493 300.636 134.493ZM298.981 130.566H302.098C302.098 130.252 302.062 129.99 301.99 129.781C301.925 129.563 301.829 129.386 301.7 129.249C301.571 129.112 301.418 129.016 301.241 128.959C301.063 128.895 300.862 128.863 300.636 128.863C300.298 128.863 300.008 128.923 299.767 129.044C299.533 129.165 299.352 129.354 299.223 129.612C299.094 129.861 299.014 130.179 298.981 130.566Z" fill="black" fill-opacity="0.9"/>
<g filter="url(#filter0_d_147_363)">
<rect x="17" y="234" width="308" height="45.6296" rx="4.38746" fill="#A6E1DB"/>
<path d="M41.5698 258.862C40.7166 258.862 39.9915 258.563 39.3943 257.966C38.7971 257.369 38.4985 256.644 38.4985 255.791V249.648C38.4985 248.795 38.7971 248.07 39.3943 247.473C39.9915 246.876 40.7166 246.577 41.5698 246.577C42.4229 246.577 43.148 246.876 43.7452 247.473C44.3424 248.07 44.641 248.795 44.641 249.648V255.791C44.641 256.644 44.3424 257.369 43.7452 257.966C43.148 258.563 42.4229 258.862 41.5698 258.862ZM40.546 266.028V262.88C38.7715 262.641 37.3042 261.848 36.1439 260.5C34.9837 259.152 34.4036 257.582 34.4036 255.791H36.451C36.451 257.207 36.9503 258.414 37.9488 259.413C38.9473 260.411 40.1543 260.91 41.5698 260.91C42.9853 260.909 44.1926 260.41 45.1918 259.412C46.1909 258.414 46.6898 257.207 46.6885 255.791H48.7359C48.7359 257.582 48.1558 259.152 46.9956 260.5C45.8353 261.848 44.368 262.641 42.5935 262.88V266.028H40.546Z" fill="black"/>
<rect x="67.8946" y="241.897" width="245.698" height="30.5869" rx="4.38746" fill="white"/>
<path d="M88.8431 264.802V249.579M95.7517 259.766V254.616M81.9344 259.766V254.616M92.2974 262.334V252.048M85.3888 262.334V252.048" stroke="black" stroke-width="1.31624" stroke-linecap="round" stroke-linejoin="round"/>
<path d="M100.139 254.433V259.948M102.936 251.675V264.085M105.732 255.812V258.569M108.528 253.054V262.45M111.325 248.917V265.464" stroke="black" stroke-width="1.31624" stroke-linecap="round" stroke-linejoin="round"/>
<path d="M122.621 264.802V249.579M129.529 259.766V254.616M115.712 259.766V254.616M126.075 262.334V252.048M119.166 262.334V252.048" stroke="black" stroke-width="1.31624" stroke-linecap="round" stroke-linejoin="round"/>
<path d="M133.917 254.433V259.948M136.713 251.675V264.085M139.509 255.812V258.569M142.306 253.054V262.45M145.102 248.917V265.464" stroke="black" stroke-width="1.31624" stroke-linecap="round" stroke-linejoin="round"/>
<path d="M156.398 264.802V249.579M163.307 259.766V254.616M149.49 259.766V254.616M159.852 262.334V252.048M152.944 262.334V252.048" stroke="black" stroke-width="1.31624" stroke-linecap="round" stroke-linejoin="round"/>
<path d="M167.694 254.433V259.948M170.491 251.675V264.085M173.287 255.812V258.569M176.083 253.054V262.45M178.88 248.917V265.464" stroke="black" stroke-width="1.31624" stroke-linecap="round" stroke-linejoin="round"/>
<path d="M190.176 264.802V249.579M197.084 259.766V254.616M183.267 259.766V254.616M193.63 262.334V252.048M186.721 262.334V252.048" stroke="black" stroke-width="1.31624" stroke-linecap="round" stroke-linejoin="round"/>
</g>
<circle cx="49.1534" cy="62.1534" r="21.1534" fill="#A6E1DB"/>
<path d="M54.5217 60.9405V63.2979C54.5217 63.4545 54.4595 63.6046 54.3488 63.7153C54.2381 63.826 54.0879 63.8882 53.9314 63.8882H50.9837V66.8359C50.9837 66.9925 50.9215 67.1427 50.8108 67.2534C50.7001 67.3641 50.5499 67.4263 50.3933 67.4263H48.036C47.8794 67.4263 47.7292 67.3641 47.6185 67.2534C47.5078 67.1427 47.4456 66.9925 47.4456 66.8359V63.8882H44.5005C44.344 63.8882 44.1938 63.826 44.0831 63.7153C43.9724 63.6046 43.9102 63.4545 43.9102 63.2979V60.9405C43.9102 60.784 43.9724 60.6338 44.0831 60.5231C44.1938 60.4124 44.344 60.3502 44.5005 60.3502H47.4483V57.4025C47.4486 57.2462 47.5109 57.0963 47.6216 56.9859C47.7323 56.8755 47.8822 56.8135 48.0386 56.8135H50.396C50.5525 56.8135 50.7027 56.8757 50.8134 56.9864C50.9241 57.0971 50.9863 57.2472 50.9863 57.4038V60.3502H53.9327C54.0892 60.3502 54.2394 60.4124 54.3501 60.5231C54.4608 60.6338 54.5217 60.784 54.5217 60.9405Z" stroke="black" stroke-opacity="0.75" stroke-width="1.47582" stroke-linecap="round" stroke-linejoin="round"/>
<path d="M60.5914 62.8292V55.9027C60.5914 55.3712 60.4241 54.8532 60.1133 54.4221C59.8025 53.991 59.3639 53.6686 58.8597 53.5007L52.4134 51.3506C50.336 50.667 48.0942 50.667 46.0168 51.3506L39.5704 53.4994C39.0664 53.6673 38.628 53.9894 38.3173 54.4203C38.0065 54.8511 37.8391 55.3688 37.8388 55.9V62.8265C37.839 64.5363 38.2727 66.2181 39.0993 67.7148C39.9259 69.2115 41.1184 70.4742 42.5654 71.385L47.8757 74.7223C48.2775 74.9728 48.7416 75.1056 49.2151 75.1056C49.6886 75.1056 50.1526 74.9728 50.5545 74.7223L55.8635 71.385C57.3106 70.4745 58.5032 69.2121 59.33 67.7156C60.1568 66.2191 60.5908 64.5375 60.5914 62.8279" stroke="black" stroke-opacity="0.75" stroke-width="1.47582" stroke-linecap="round" stroke-linejoin="round"/>
<path d="M79.3502 55.6533V46.8177H80.7927V50.5142H85.2749V46.8177H86.7175V55.6533H85.2749V51.7507H80.7927V55.6533H79.3502ZM88.8861 47.7064V46.3412H90.2256V47.7064H88.8861ZM88.8861 55.6533V48.8785H90.2256V55.6533H88.8861ZM92.3673 57.6368V57.0572C92.5562 57.0229 92.7065 56.937 92.8181 56.7996C92.9383 56.6708 93.0242 56.5077 93.0757 56.3102C93.1358 56.1127 93.1659 55.8937 93.1659 55.6533H92.4832V54.1593H93.9129V55.5116C93.9129 56.0097 93.8356 56.4046 93.681 56.6966C93.5351 56.9885 93.3419 57.2032 93.1015 57.3406C92.8696 57.4866 92.6249 57.5853 92.3673 57.6368ZM99.2602 55.6533V46.8177H100.703V55.6533H99.2602ZM102.872 50.2953V49.7028C103.061 49.6685 103.215 49.5869 103.336 49.4581C103.456 49.3207 103.542 49.1533 103.593 48.9558C103.645 48.7583 103.67 48.5436 103.67 48.3118H102.988V46.8177H104.43V48.1701C104.43 48.6595 104.353 49.0545 104.198 49.3551C104.044 49.647 103.846 49.866 103.606 50.0119C103.374 50.1493 103.129 50.2438 102.872 50.2953ZM106.198 55.6533V48.8785H107.306L107.422 49.8445H107.512C107.667 49.5955 107.843 49.3894 108.04 49.2263C108.246 49.0631 108.474 48.9386 108.723 48.8527C108.981 48.7669 109.255 48.7239 109.547 48.7239C109.968 48.7239 110.333 48.8098 110.642 48.9815C110.96 49.1533 111.2 49.4409 111.363 49.8445H111.453C111.608 49.6041 111.788 49.4023 111.994 49.2391C112.201 49.0674 112.432 48.9386 112.69 48.8527C112.956 48.7669 113.24 48.7239 113.54 48.7239C113.944 48.7239 114.3 48.7969 114.609 48.9429C114.918 49.0803 115.163 49.3164 115.343 49.6513C115.524 49.9776 115.614 50.4155 115.614 50.965V55.6533H114.274V51.2098C114.274 50.9522 114.244 50.7418 114.184 50.5786C114.124 50.4069 114.042 50.2738 113.939 50.1794C113.836 50.0763 113.712 50.0033 113.566 49.9604C113.42 49.9175 113.261 49.896 113.089 49.896C112.806 49.896 112.553 49.9733 112.329 50.1278C112.106 50.2738 111.926 50.4799 111.788 50.7461C111.651 51.0123 111.582 51.3257 111.582 51.6863V55.6533H110.243V51.2098C110.243 50.9522 110.213 50.7418 110.153 50.5786C110.093 50.4069 110.011 50.2738 109.908 50.1794C109.805 50.0763 109.68 50.0033 109.534 49.9604C109.388 49.9175 109.234 49.896 109.071 49.896C108.787 49.896 108.53 49.9733 108.298 50.1278C108.066 50.2738 107.881 50.4799 107.744 50.7461C107.607 51.0123 107.538 51.3257 107.538 51.6863V55.6533H106.198ZM123.888 55.8079C123.407 55.8079 122.944 55.7564 122.497 55.6533C122.051 55.5589 121.656 55.4043 121.312 55.1896C120.969 54.9664 120.698 54.6873 120.501 54.3525C120.303 54.009 120.204 53.6011 120.204 53.1289C120.204 53.0773 120.204 53.0301 120.204 52.9872C120.213 52.9357 120.217 52.8927 120.217 52.8584H121.66C121.66 52.8841 121.656 52.9228 121.647 52.9743C121.647 53.0258 121.647 53.0688 121.647 53.1031C121.647 53.4208 121.741 53.6913 121.93 53.9145C122.119 54.1378 122.381 54.3052 122.716 54.4169C123.06 54.5285 123.45 54.5843 123.888 54.5843C124.129 54.5843 124.36 54.5714 124.584 54.5456C124.807 54.5113 125.009 54.4641 125.189 54.404C125.378 54.3353 125.541 54.2537 125.678 54.1593C125.816 54.0562 125.923 53.936 126 53.7986C126.078 53.6612 126.116 53.5024 126.116 53.3221C126.116 53.0473 126.035 52.8197 125.872 52.6394C125.717 52.4591 125.502 52.3088 125.228 52.1886C124.961 52.0684 124.657 51.9611 124.313 51.8666C123.978 51.7722 123.631 51.6777 123.27 51.5833C122.909 51.4888 122.557 51.3772 122.214 51.2484C121.879 51.1196 121.574 50.965 121.299 50.7847C121.033 50.5958 120.818 50.364 120.655 50.0892C120.501 49.8058 120.423 49.4624 120.423 49.0588C120.423 48.6724 120.505 48.329 120.668 48.0284C120.831 47.7279 121.067 47.4789 121.377 47.2814C121.686 47.0753 122.055 46.9208 122.484 46.8177C122.914 46.7147 123.399 46.6632 123.94 46.6632C124.403 46.6632 124.841 46.7147 125.253 46.8177C125.666 46.9122 126.026 47.0624 126.335 47.2685C126.644 47.4746 126.885 47.7365 127.057 48.0542C127.237 48.3719 127.327 48.7497 127.327 49.1876V49.3422H125.897V49.1747C125.897 48.9 125.816 48.6681 125.653 48.4792C125.49 48.2903 125.262 48.1443 124.97 48.0413C124.678 47.9383 124.339 47.8867 123.953 47.8867C123.497 47.8867 123.115 47.934 122.806 48.0284C122.497 48.1143 122.261 48.2388 122.098 48.4019C121.943 48.5565 121.866 48.7454 121.866 48.9687C121.866 49.2177 121.948 49.4237 122.111 49.5869C122.274 49.7414 122.489 49.8745 122.755 49.9862C123.029 50.0978 123.334 50.2008 123.669 50.2953C124.013 50.3812 124.36 50.4756 124.712 50.5786C125.073 50.6731 125.421 50.7847 125.756 50.9135C126.099 51.0423 126.404 51.2012 126.67 51.3901C126.945 51.579 127.164 51.8151 127.327 52.0985C127.49 52.3732 127.572 52.7124 127.572 53.116C127.572 53.7514 127.413 54.2709 127.095 54.6744C126.778 55.0694 126.34 55.3571 125.781 55.5374C125.232 55.7177 124.601 55.8079 123.888 55.8079ZM131.448 55.8079C130.795 55.8079 130.267 55.6361 129.863 55.2927C129.46 54.9406 129.258 54.3439 129.258 53.5024V48.8785H130.598V53.2963C130.598 53.5539 130.628 53.7686 130.688 53.9403C130.756 54.112 130.851 54.2494 130.971 54.3525C131.091 54.4555 131.233 54.5285 131.396 54.5714C131.559 54.6143 131.74 54.6358 131.937 54.6358C132.246 54.6358 132.525 54.5628 132.774 54.4169C133.032 54.2623 133.238 54.0519 133.392 53.7857C133.547 53.511 133.624 53.1976 133.624 52.8455V48.8785H134.964V55.6533H133.869L133.753 54.6873H133.663C133.5 54.9363 133.307 55.1424 133.083 55.3056C132.86 55.4687 132.611 55.5932 132.336 55.6791C132.07 55.7649 131.774 55.8079 131.448 55.8079ZM136.951 55.6533V48.8785H138.058L138.174 49.9733H138.252C138.329 49.7586 138.428 49.5568 138.548 49.3679C138.677 49.179 138.84 49.0245 139.037 48.9043C139.243 48.784 139.492 48.7239 139.784 48.7239C139.922 48.7239 140.042 48.7368 140.145 48.7626C140.257 48.7883 140.342 48.8098 140.403 48.827V50.0892H139.952C139.677 50.0892 139.432 50.1321 139.218 50.218C139.012 50.3039 138.836 50.4327 138.69 50.6044C138.552 50.7675 138.449 50.9693 138.38 51.2098C138.32 51.4502 138.29 51.7207 138.29 52.0212V55.6533H136.951ZM142.794 57.9975C142.485 57.9975 142.193 57.9331 141.919 57.8043C141.652 57.6755 141.438 57.4909 141.275 57.2504C141.111 57.01 141.03 56.7181 141.03 56.3746C141.03 55.9968 141.133 55.692 141.339 55.4601C141.554 55.2197 141.803 55.0394 142.086 54.9192C141.88 54.8247 141.712 54.6873 141.584 54.507C141.463 54.3267 141.403 54.1206 141.403 53.8888C141.403 53.5711 141.519 53.3135 141.751 53.116C141.983 52.9185 142.253 52.7897 142.563 52.7296C142.262 52.5321 142.026 52.2831 141.854 51.9826C141.691 51.682 141.609 51.3428 141.609 50.965C141.609 50.5099 141.717 50.1193 141.931 49.793C142.146 49.4581 142.464 49.1962 142.885 49.0073C143.314 48.8184 143.833 48.7239 144.443 48.7239C144.709 48.7239 144.958 48.7454 145.19 48.7883C145.43 48.8227 145.645 48.8742 145.834 48.9429C146.135 48.7883 146.349 48.6037 146.478 48.3891C146.607 48.1658 146.684 47.9597 146.71 47.7708H148.024C148.024 48.0542 147.964 48.3118 147.843 48.5436C147.732 48.7669 147.573 48.9558 147.367 49.1103C147.169 49.2563 146.929 49.3593 146.645 49.4195C146.86 49.6169 147.019 49.8488 147.122 50.115C147.234 50.3726 147.289 50.6559 147.289 50.965C147.289 51.4115 147.186 51.8022 146.98 52.1371C146.774 52.472 146.461 52.7339 146.04 52.9228C145.628 53.1117 145.117 53.2061 144.507 53.2061H143.451C143.245 53.2061 143.078 53.2491 142.949 53.3349C142.829 53.4208 142.769 53.5496 142.769 53.7213C142.769 53.8673 142.829 53.9875 142.949 54.082C143.069 54.1764 143.228 54.2237 143.426 54.2237H146.285C146.783 54.2237 147.195 54.3911 147.521 54.726C147.848 55.0523 148.011 55.473 148.011 55.9882C148.011 56.366 147.912 56.7052 147.715 57.0057C147.526 57.3148 147.255 57.5553 146.903 57.727C146.56 57.9073 146.16 57.9975 145.705 57.9975H142.794ZM143.232 57.0057H145.692C145.873 57.0057 146.036 56.9714 146.182 56.9027C146.328 56.834 146.444 56.7352 146.53 56.6064C146.615 56.4862 146.658 56.3488 146.658 56.1943C146.658 55.9367 146.577 55.7349 146.414 55.5889C146.259 55.4429 146.066 55.37 145.834 55.37H143.232C142.992 55.37 142.79 55.4515 142.627 55.6147C142.464 55.7692 142.382 55.9624 142.382 56.1943C142.382 56.4347 142.46 56.6279 142.614 56.7739C142.777 56.9284 142.983 57.0057 143.232 57.0057ZM144.456 52.2401C144.963 52.2401 145.34 52.1285 145.589 51.9053C145.838 51.6734 145.963 51.36 145.963 50.965C145.963 50.5615 145.838 50.2524 145.589 50.0377C145.34 49.8144 144.963 49.7028 144.456 49.7028C143.949 49.7028 143.571 49.8144 143.322 50.0377C143.073 50.2524 142.949 50.5615 142.949 50.965C142.949 51.2226 143 51.4502 143.104 51.6477C143.215 51.8366 143.383 51.9826 143.606 52.0856C143.838 52.1886 144.121 52.2401 144.456 52.2401ZM149.302 47.7064V46.3412H150.641V47.7064H149.302ZM149.302 55.6533V48.8785H150.641V55.6533H149.302ZM152.899 55.6533V54.1593H154.329V55.6533H152.899ZM81.0117 76.6533L78.4357 66.836H80.6968L82.1279 72.6892C82.1565 72.775 82.1852 72.9038 82.2138 73.0756C82.2424 73.2378 82.271 73.4095 82.2997 73.5908C82.3283 73.772 82.3521 73.9342 82.3712 74.0773H82.4428C82.4618 73.9724 82.4762 73.8531 82.4857 73.7196C82.5048 73.586 82.5239 73.4572 82.5429 73.3332C82.5716 73.1996 82.5954 73.0756 82.6145 72.9611C82.6431 72.8466 82.6622 72.756 82.6717 72.6892L84.0027 66.836H86.55L87.9096 72.6892C87.9382 72.7846 87.9668 72.9134 87.9954 73.0756C88.024 73.2378 88.0527 73.4095 88.0813 73.5908C88.1099 73.772 88.1338 73.9342 88.1528 74.0773H88.2244C88.2435 73.9724 88.2626 73.8579 88.2816 73.7339C88.3103 73.6098 88.3341 73.4858 88.3532 73.3618C88.3818 73.2282 88.4104 73.1042 88.4391 72.9897C88.4677 72.8752 88.4915 72.775 88.5106 72.6892L89.9274 66.836H91.9739L89.3836 76.6533H86.9507L85.5053 70.6141C85.4767 70.4805 85.4433 70.3279 85.4051 70.1561C85.3765 69.9749 85.3479 69.7984 85.3193 69.6266C85.2906 69.4549 85.2668 69.3022 85.2477 69.1687H85.1905C85.1714 69.3022 85.1475 69.4597 85.1189 69.6409C85.0998 69.8222 85.0712 69.9987 85.0331 70.1704C85.0044 70.3422 84.9758 70.4901 84.9472 70.6141L83.5161 76.6533H81.0117ZM93.3029 76.6533V66.3065H95.2921V69.9558H95.3923C95.5545 69.7554 95.7453 69.5837 95.9647 69.4406C96.1937 69.2879 96.4465 69.1687 96.7232 69.0828C97.0094 68.9969 97.3195 68.954 97.6534 68.954C98.1496 68.954 98.5837 69.0446 98.9557 69.2259C99.3278 69.4072 99.614 69.6934 99.8144 70.0846C100.024 70.4757 100.129 70.9862 100.129 71.6159V76.6533H98.14V71.9307C98.14 71.6922 98.1114 71.4918 98.0542 71.3296C97.9969 71.1579 97.911 71.0196 97.7966 70.9146C97.6916 70.8001 97.558 70.719 97.3958 70.6713C97.2337 70.6236 97.0524 70.5998 96.852 70.5998C96.5563 70.5998 96.2891 70.6713 96.0506 70.8144C95.8121 70.9575 95.6261 71.1531 95.4925 71.4012C95.3589 71.6492 95.2921 71.9355 95.2921 72.2598V76.6533H93.3029ZM104.187 76.8251C103.939 76.8251 103.672 76.7964 103.386 76.7392C103.109 76.6819 102.847 76.5818 102.599 76.4387C102.351 76.286 102.146 76.0713 101.983 75.7947C101.831 75.5084 101.754 75.1459 101.754 74.707C101.754 74.1823 101.869 73.7482 102.098 73.4047C102.327 73.0613 102.651 72.7941 103.071 72.6033C103.5 72.403 104.011 72.2646 104.602 72.1883C105.194 72.112 105.847 72.0738 106.563 72.0738V71.5157C106.563 71.2962 106.525 71.1054 106.448 70.9432C106.382 70.781 106.258 70.6522 106.076 70.5568C105.905 70.4614 105.661 70.4137 105.346 70.4137C105.032 70.4137 104.774 70.4519 104.574 70.5282C104.383 70.6045 104.245 70.7047 104.159 70.8287C104.082 70.9432 104.044 71.072 104.044 71.2151V71.3869H102.112C102.103 71.3392 102.098 71.2962 102.098 71.2581C102.098 71.2104 102.098 71.1531 102.098 71.0863C102.098 70.6475 102.231 70.2706 102.499 69.9558C102.766 69.6314 103.143 69.3833 103.629 69.2116C104.116 69.0399 104.683 68.954 105.332 68.954C106.029 68.954 106.611 69.0446 107.078 69.2259C107.555 69.4072 107.918 69.6743 108.166 70.0273C108.423 70.3803 108.552 70.824 108.552 71.3583V74.7786C108.552 74.9503 108.6 75.0791 108.695 75.165C108.8 75.2413 108.915 75.2795 109.039 75.2795H109.511V76.5818C109.416 76.6295 109.268 76.6772 109.067 76.7249C108.867 76.7821 108.624 76.8107 108.337 76.8107C108.061 76.8107 107.813 76.7678 107.593 76.6819C107.383 76.6056 107.207 76.4959 107.064 76.3528C106.921 76.2001 106.821 76.0189 106.763 75.809H106.663C106.501 76.0093 106.301 76.1858 106.062 76.3385C105.833 76.4911 105.561 76.6104 105.246 76.6963C104.941 76.7821 104.588 76.8251 104.187 76.8251ZM104.86 75.3224C105.127 75.3224 105.366 75.2842 105.575 75.2079C105.785 75.122 105.962 75.0123 106.105 74.8788C106.248 74.7356 106.358 74.5639 106.434 74.3636C106.52 74.1632 106.563 73.9485 106.563 73.7196V73.3045C106.029 73.3045 105.552 73.3427 105.132 73.419C104.712 73.4858 104.378 73.6051 104.13 73.7768C103.892 73.9485 103.772 74.1871 103.772 74.4924C103.772 74.6641 103.815 74.812 103.901 74.936C103.987 75.06 104.111 75.1554 104.273 75.2222C104.435 75.289 104.631 75.3224 104.86 75.3224ZM113.033 76.8251C112.556 76.8251 112.169 76.7392 111.873 76.5675C111.578 76.3957 111.363 76.1667 111.229 75.8805C111.096 75.5848 111.029 75.2604 111.029 74.9074V70.657H110.099V69.1257H111.101L111.473 66.9791H113.018V69.1257H114.392V70.657H113.018V74.5782C113.018 74.8072 113.071 74.9837 113.176 75.1077C113.281 75.2222 113.452 75.2795 113.691 75.2795H114.392V76.5961C114.278 76.6342 114.144 76.6676 113.991 76.6963C113.839 76.7344 113.677 76.763 113.505 76.7821C113.333 76.8107 113.176 76.8251 113.033 76.8251ZM122.365 76.8251C121.563 76.8251 120.891 76.6867 120.347 76.41C119.803 76.1238 119.388 75.6897 119.102 75.1077C118.825 74.5162 118.687 73.7768 118.687 72.8895C118.687 71.9832 118.825 71.2438 119.102 70.6713C119.388 70.0893 119.803 69.6552 120.347 69.369C120.9 69.0828 121.573 68.9397 122.365 68.9397C122.88 68.9397 123.343 69.0017 123.753 69.1257C124.173 69.2498 124.535 69.4406 124.84 69.6982C125.146 69.9558 125.375 70.2754 125.527 70.657C125.69 71.0291 125.771 71.4727 125.771 71.9879H123.781C123.781 71.6445 123.729 71.363 123.624 71.1436C123.519 70.9242 123.357 70.7572 123.137 70.6427C122.928 70.5282 122.66 70.471 122.336 70.471C121.954 70.471 121.644 70.5568 121.406 70.7286C121.167 70.9003 120.991 71.1531 120.876 71.4871C120.762 71.821 120.705 72.236 120.705 72.7321V73.0613C120.705 73.5478 120.762 73.9581 120.876 74.292C121 74.6259 121.186 74.8788 121.434 75.0505C121.682 75.2127 122.007 75.2938 122.408 75.2938C122.732 75.2938 122.999 75.2365 123.209 75.122C123.428 75.0076 123.595 74.8358 123.71 74.6068C123.824 74.3779 123.882 74.1012 123.882 73.7768H125.771C125.771 74.2634 125.69 74.6975 125.527 75.0791C125.375 75.4607 125.146 75.7803 124.84 76.0379C124.545 76.2955 124.187 76.4911 123.767 76.6247C123.347 76.7583 122.88 76.8251 122.365 76.8251ZM129.538 76.8251C129.29 76.8251 129.023 76.7964 128.736 76.7392C128.46 76.6819 128.197 76.5818 127.949 76.4387C127.701 76.286 127.496 76.0713 127.334 75.7947C127.181 75.5084 127.105 75.1459 127.105 74.707C127.105 74.1823 127.22 73.7482 127.448 73.4047C127.677 73.0613 128.002 72.7941 128.422 72.6033C128.851 72.403 129.361 72.2646 129.953 72.1883C130.544 72.112 131.198 72.0738 131.914 72.0738V71.5157C131.914 71.2962 131.875 71.1054 131.799 70.9432C131.732 70.781 131.608 70.6522 131.427 70.5568C131.255 70.4614 131.012 70.4137 130.697 70.4137C130.382 70.4137 130.125 70.4519 129.924 70.5282C129.733 70.6045 129.595 70.7047 129.509 70.8287C129.433 70.9432 129.395 71.072 129.395 71.2151V71.3869H127.463C127.453 71.3392 127.448 71.2962 127.448 71.2581C127.448 71.2104 127.448 71.1531 127.448 71.0863C127.448 70.6475 127.582 70.2706 127.849 69.9558C128.116 69.6314 128.493 69.3833 128.98 69.2116C129.466 69.0399 130.034 68.954 130.683 68.954C131.379 68.954 131.961 69.0446 132.429 69.2259C132.906 69.4072 133.268 69.6743 133.516 70.0273C133.774 70.3803 133.903 70.824 133.903 71.3583V74.7786C133.903 74.9503 133.95 75.0791 134.046 75.165C134.151 75.2413 134.265 75.2795 134.389 75.2795H134.862V76.5818C134.766 76.6295 134.618 76.6772 134.418 76.7249C134.218 76.7821 133.974 76.8107 133.688 76.8107C133.411 76.8107 133.163 76.7678 132.944 76.6819C132.734 76.6056 132.558 76.4959 132.414 76.3528C132.271 76.2001 132.171 76.0189 132.114 75.809H132.014C131.851 76.0093 131.651 76.1858 131.413 76.3385C131.184 76.4911 130.912 76.6104 130.597 76.6963C130.292 76.7821 129.939 76.8251 129.538 76.8251ZM130.21 75.3224C130.478 75.3224 130.716 75.2842 130.926 75.2079C131.136 75.122 131.312 75.0123 131.456 74.8788C131.599 74.7356 131.708 74.5639 131.785 74.3636C131.871 74.1632 131.914 73.9485 131.914 73.7196V73.3045C131.379 73.3045 130.902 73.3427 130.482 73.419C130.063 73.4858 129.729 73.6051 129.481 73.7768C129.242 73.9485 129.123 74.1871 129.123 74.4924C129.123 74.6641 129.166 74.812 129.252 74.936C129.338 75.06 129.462 75.1554 129.624 75.2222C129.786 75.289 129.982 75.3224 130.21 75.3224ZM136.136 76.6533V69.1257H137.782L137.94 70.1561H138.04C138.211 69.9081 138.417 69.6934 138.655 69.5121C138.903 69.3309 139.18 69.1925 139.485 69.0971C139.79 69.0017 140.124 68.954 140.487 68.954C140.983 68.954 141.417 69.0446 141.789 69.2259C142.161 69.4072 142.448 69.6934 142.648 70.0846C142.858 70.4757 142.963 70.9862 142.963 71.6159V76.6533H140.973V71.9307C140.973 71.6922 140.945 71.4918 140.888 71.3296C140.83 71.1579 140.745 71.0196 140.63 70.9146C140.525 70.8001 140.392 70.719 140.229 70.6713C140.067 70.6236 139.886 70.5998 139.685 70.5998C139.39 70.5998 139.123 70.6713 138.884 70.8144C138.646 70.9575 138.46 71.1531 138.326 71.4012C138.192 71.6492 138.126 71.9355 138.126 72.2598V76.6533H136.136ZM148.299 76.6533V66.836H150.431V76.6533H148.299ZM155.813 76.6533V66.3065H157.802V69.9558H157.902C158.064 69.7554 158.255 69.5837 158.475 69.4406C158.704 69.2879 158.957 69.1687 159.233 69.0828C159.519 68.9969 159.829 68.954 160.163 68.954C160.66 68.954 161.094 69.0446 161.466 69.2259C161.838 69.4072 162.124 69.6934 162.324 70.0846C162.534 70.4757 162.639 70.9862 162.639 71.6159V76.6533H160.65V71.9307C160.65 71.6922 160.621 71.4918 160.564 71.3296C160.507 71.1579 160.421 71.0196 160.307 70.9146C160.202 70.8001 160.068 70.719 159.906 70.6713C159.744 70.6236 159.562 70.5998 159.362 70.5998C159.066 70.5998 158.799 70.6713 158.561 70.8144C158.322 70.9575 158.136 71.1531 158.002 71.4012C157.869 71.6492 157.802 71.9355 157.802 72.2598V76.6533H155.813ZM168.128 76.8251C167.298 76.8251 166.602 76.6867 166.039 76.41C165.476 76.1238 165.052 75.6897 164.765 75.1077C164.479 74.5258 164.336 73.7864 164.336 72.8895C164.336 71.9832 164.479 71.2438 164.765 70.6713C165.052 70.0893 165.471 69.66 166.025 69.3833C166.588 69.0971 167.274 68.954 168.085 68.954C168.849 68.954 169.493 69.0923 170.017 69.369C170.542 69.6362 170.938 70.056 171.205 70.6284C171.472 71.1913 171.606 71.9212 171.606 72.818V73.3332H166.354C166.373 73.772 166.44 74.1441 166.554 74.4494C166.678 74.7547 166.864 74.9837 167.112 75.1364C167.37 75.2795 167.709 75.351 168.128 75.351C168.357 75.351 168.562 75.3224 168.744 75.2652C168.935 75.2079 169.097 75.122 169.23 75.0076C169.364 74.8931 169.469 74.75 169.545 74.5782C169.621 74.4065 169.66 74.2109 169.66 73.9915H171.606C171.606 74.4685 171.52 74.8835 171.348 75.2365C171.177 75.5895 170.938 75.8853 170.633 76.1238C170.327 76.3528 169.96 76.5293 169.531 76.6533C169.111 76.7678 168.644 76.8251 168.128 76.8251ZM166.382 72.0738H169.559C169.559 71.7876 169.521 71.5395 169.445 71.3296C169.378 71.1197 169.283 70.948 169.159 70.8144C169.035 70.6809 168.882 70.5855 168.701 70.5282C168.529 70.4614 168.333 70.428 168.114 70.428C167.752 70.428 167.446 70.4901 167.198 70.6141C166.96 70.7286 166.774 70.9098 166.64 71.1579C166.516 71.3964 166.43 71.7017 166.382 72.0738ZM173.352 76.6533V66.3065H175.341V76.6533H173.352ZM177.453 79.2007V69.1257H179.085L179.256 70.1418H179.357C179.605 69.7316 179.929 69.431 180.33 69.2402C180.73 69.0494 181.174 68.954 181.661 68.954C182.29 68.954 182.829 69.0923 183.278 69.369C183.736 69.6457 184.084 70.075 184.322 70.657C184.571 71.239 184.695 71.9879 184.695 72.9038C184.695 73.7911 184.571 74.5258 184.322 75.1077C184.074 75.6897 183.726 76.1238 183.278 76.41C182.839 76.6867 182.324 76.8251 181.732 76.8251C181.408 76.8251 181.107 76.7869 180.831 76.7106C180.554 76.6438 180.306 76.5341 180.086 76.3814C179.867 76.2288 179.681 76.0427 179.528 75.8233H179.442V79.2007H177.453ZM181.045 75.1936C181.446 75.1936 181.761 75.1173 181.99 74.9646C182.228 74.8024 182.4 74.5639 182.505 74.2491C182.61 73.9247 182.662 73.5288 182.662 73.0613V72.7321C182.662 72.2551 182.61 71.8591 182.505 71.5443C182.4 71.2199 182.228 70.9814 181.99 70.8287C181.761 70.6666 181.446 70.5855 181.045 70.5855C180.673 70.5855 180.368 70.6713 180.129 70.8431C179.891 71.0148 179.714 71.2628 179.6 71.5872C179.485 71.9116 179.428 72.3028 179.428 72.7607V73.004C179.428 73.3379 179.462 73.6432 179.528 73.9199C179.595 74.1871 179.69 74.416 179.815 74.6068C179.948 74.7977 180.115 74.9455 180.315 75.0505C180.516 75.1459 180.759 75.1936 181.045 75.1936ZM190.629 79.3438C190.276 79.3438 189.98 79.3152 189.742 79.2579C189.513 79.2102 189.365 79.1768 189.298 79.1577V77.8125H190.171C190.41 77.8125 190.624 77.7553 190.815 77.6408C191.006 77.5358 191.173 77.3927 191.316 77.2114C191.459 77.0397 191.564 76.8537 191.631 76.6533L188.683 69.1257H190.787L192.075 72.6033C192.132 72.7655 192.194 72.9706 192.261 73.2187C192.337 73.4572 192.413 73.71 192.49 73.9772C192.566 74.2348 192.628 74.4637 192.676 74.6641H192.747C192.785 74.5305 192.828 74.3731 192.876 74.1918C192.924 74.0106 192.971 73.8245 193.019 73.6337C193.076 73.4429 193.129 73.2616 193.177 73.0899C193.234 72.9086 193.281 72.7512 193.32 72.6176L194.393 69.1257H196.396L193.835 76.2955C193.692 76.7153 193.525 77.1065 193.334 77.469C193.153 77.8411 192.938 78.1655 192.69 78.4422C192.442 78.7284 192.146 78.9478 191.803 79.1005C191.469 79.2627 191.078 79.3438 190.629 79.3438ZM201.117 76.8251C200.297 76.8251 199.6 76.6867 199.028 76.41C198.455 76.1238 198.021 75.6897 197.726 75.1077C197.43 74.5162 197.282 73.7768 197.282 72.8895C197.282 71.9832 197.43 71.2438 197.726 70.6713C198.021 70.0893 198.455 69.66 199.028 69.3833C199.6 69.0971 200.297 68.954 201.117 68.954C201.957 68.954 202.658 69.0971 203.221 69.3833C203.793 69.66 204.228 70.0893 204.523 70.6713C204.819 71.2438 204.967 71.9832 204.967 72.8895C204.967 73.7768 204.819 74.5162 204.523 75.1077C204.228 75.6897 203.793 76.1238 203.221 76.41C202.658 76.6867 201.957 76.8251 201.117 76.8251ZM201.117 75.2795C201.556 75.2795 201.904 75.1984 202.162 75.0362C202.429 74.874 202.625 74.6259 202.749 74.292C202.873 73.9581 202.935 73.5478 202.935 73.0613V72.7178C202.935 72.2312 202.873 71.821 202.749 71.4871C202.625 71.1531 202.429 70.9051 202.162 70.7429C201.904 70.5711 201.556 70.4853 201.117 70.4853C200.688 70.4853 200.34 70.5711 200.073 70.7429C199.815 70.9051 199.624 71.1531 199.5 71.4871C199.376 71.821 199.314 72.2312 199.314 72.7178V73.0613C199.314 73.5478 199.376 73.9581 199.5 74.292C199.624 74.6259 199.815 74.874 200.073 75.0362C200.34 75.1984 200.688 75.2795 201.117 75.2795ZM209.15 76.8251C208.387 76.8251 207.781 76.6152 207.332 76.1954C206.884 75.7756 206.66 75.0982 206.66 74.1632V69.1257H208.649V73.8341C208.649 74.0821 208.678 74.292 208.735 74.4637C208.792 74.6259 208.873 74.7595 208.978 74.8644C209.093 74.9694 209.231 75.0457 209.393 75.0934C209.555 75.1411 209.737 75.165 209.937 75.165C210.233 75.165 210.5 75.0934 210.738 74.9503C210.977 74.8072 211.163 74.6116 211.296 74.3636C211.43 74.106 211.497 73.8197 211.497 73.5049V69.1257H213.486V76.6533H211.855L211.711 75.6229H211.611C211.43 75.8614 211.215 76.0713 210.967 76.2526C210.729 76.4339 210.457 76.5722 210.152 76.6676C209.846 76.7726 209.512 76.8251 209.15 76.8251ZM220.167 76.6533L217.806 69.1257H219.896L220.84 72.818C220.888 73.0088 220.931 73.2139 220.969 73.4333C221.017 73.6528 221.06 73.8484 221.098 74.0201C221.136 74.1918 221.164 74.3159 221.184 74.3922H221.284C221.322 74.2014 221.36 74.0058 221.398 73.8054C221.446 73.5955 221.489 73.4 221.527 73.2187C221.575 73.0279 221.608 72.8848 221.627 72.7894L222.529 69.1257H224.604L225.534 72.8037C225.572 72.9372 225.61 73.1042 225.649 73.3045C225.687 73.4954 225.73 73.6909 225.777 73.8913C225.825 74.0821 225.863 74.2491 225.892 74.3922H225.978C225.997 74.2586 226.025 74.1012 226.064 73.9199C226.111 73.7386 226.154 73.5526 226.192 73.3618C226.24 73.171 226.283 72.9992 226.321 72.8466L227.251 69.1257H229.169L226.822 76.6533H224.776L223.946 73.2902C223.907 73.109 223.86 72.9086 223.802 72.6892C223.745 72.4602 223.693 72.236 223.645 72.0166C223.607 71.7971 223.574 71.6063 223.545 71.4441H223.459C223.459 71.53 223.44 71.6636 223.402 71.8448C223.364 72.0166 223.316 72.2265 223.259 72.4745C223.211 72.713 223.149 72.9849 223.073 73.2902L222.214 76.6533H220.167ZM230.398 68.0238V66.3065H232.387V68.0238H230.398ZM230.398 76.6533V69.1257H232.387V76.6533H230.398ZM236.746 76.8251C236.269 76.8251 235.883 76.7392 235.587 76.5675C235.291 76.3957 235.076 76.1667 234.943 75.8805C234.809 75.5848 234.743 75.2604 234.743 74.9074V70.657H233.812V69.1257H234.814L235.186 66.9791H236.732V69.1257H238.106V70.657H236.732V74.5782C236.732 74.8072 236.784 74.9837 236.889 75.1077C236.994 75.2222 237.166 75.2795 237.404 75.2795H238.106V76.5961C237.991 76.6342 237.858 76.6676 237.705 76.6963C237.552 76.7344 237.39 76.763 237.218 76.7821C237.047 76.8107 236.889 76.8251 236.746 76.8251ZM239.677 76.6533V66.3065H241.666V69.9558H241.766C241.929 69.7554 242.119 69.5837 242.339 69.4406C242.568 69.2879 242.821 69.1687 243.097 69.0828C243.383 68.9969 243.694 68.954 244.027 68.954C244.524 68.954 244.958 69.0446 245.33 69.2259C245.702 69.4072 245.988 69.6934 246.188 70.0846C246.398 70.4757 246.503 70.9862 246.503 71.6159V76.6533H244.514V71.9307C244.514 71.6922 244.485 71.4918 244.428 71.3296C244.371 71.1579 244.285 71.0196 244.171 70.9146C244.066 70.8001 243.932 70.719 243.77 70.6713C243.608 70.6236 243.426 70.5998 243.226 70.5998C242.93 70.5998 242.663 70.6713 242.425 70.8144C242.186 70.9575 242 71.1531 241.867 71.4012C241.733 71.6492 241.666 71.9355 241.666 72.2598V76.6533H239.677ZM251.091 73.7339V73.0613C251.091 72.7178 251.143 72.4268 251.248 72.1883C251.363 71.9402 251.501 71.7256 251.663 71.5443C251.835 71.3535 252.016 71.1865 252.207 71.0434C252.398 70.8908 252.574 70.7429 252.737 70.5998C252.908 70.4471 253.047 70.2802 253.152 70.0989C253.266 69.9176 253.323 69.7125 253.323 69.4835C253.323 69.3786 253.309 69.2593 253.28 69.1257C253.252 68.9922 253.19 68.8634 253.094 68.7393C253.009 68.6058 252.875 68.5008 252.694 68.4245C252.512 68.3386 252.274 68.2957 251.978 68.2957C251.654 68.2957 251.391 68.3434 251.191 68.4388C251 68.5342 250.852 68.6582 250.747 68.8109C250.652 68.954 250.585 69.1067 250.547 69.2688C250.518 69.431 250.504 69.5837 250.504 69.7268C250.504 69.7936 250.504 69.8604 250.504 69.9272C250.504 69.9844 250.509 70.0464 250.518 70.1132H248.558C248.548 70.056 248.534 69.9844 248.515 69.8985C248.505 69.8127 248.501 69.7125 248.501 69.598C248.501 69.2641 248.548 68.9492 248.644 68.6535C248.749 68.3577 248.897 68.0906 249.087 67.8521C249.288 67.604 249.536 67.3941 249.831 67.2224C250.127 67.0411 250.466 66.9028 250.848 66.8074C251.229 66.712 251.654 66.6642 252.121 66.6642C252.522 66.6642 252.894 66.7024 253.238 66.7787C253.591 66.8455 253.901 66.9552 254.168 67.1079C254.444 67.251 254.678 67.4275 254.869 67.6374C255.06 67.8473 255.208 68.0906 255.313 68.3673C255.418 68.6439 255.47 68.9492 255.47 69.2832C255.47 69.7029 255.408 70.0607 255.284 70.3565C255.16 70.6427 254.998 70.8955 254.797 71.115C254.607 71.3249 254.401 71.5109 254.182 71.6731C253.963 71.8353 253.753 71.9975 253.552 72.1597C253.362 72.3123 253.204 72.4793 253.08 72.6606C252.956 72.8418 252.894 73.0613 252.894 73.3189V73.7339H251.091ZM250.976 76.6533V74.6498H253.009V76.6533H250.976Z" fill="black"/>
<circle cx="49.5" cy="184.5" r="21.5" fill="#A6E1DB"/>
<path d="M54.956 183.268V185.664C54.956 185.823 54.8928 185.976 54.7803 186.088C54.6677 186.201 54.5151 186.264 54.356 186.264H51.36V189.26C51.36 189.419 51.2968 189.572 51.1843 189.684C51.0717 189.797 50.9191 189.86 50.76 189.86H48.364C48.2049 189.86 48.0522 189.797 47.9397 189.684C47.8272 189.572 47.764 189.419 47.764 189.26V186.264H44.7707C44.6115 186.264 44.4589 186.201 44.3464 186.088C44.2339 185.976 44.1707 185.823 44.1707 185.664V183.268C44.1707 183.109 44.2339 182.956 44.3464 182.844C44.4589 182.731 44.6115 182.668 44.7707 182.668H47.7667V179.672C47.767 179.513 47.8304 179.361 47.9429 179.249C48.0553 179.136 48.2078 179.073 48.3667 179.073H50.7627C50.9218 179.073 51.0744 179.136 51.1869 179.249C51.2994 179.362 51.3627 179.514 51.3627 179.673V182.668H54.3573C54.5165 182.668 54.6691 182.731 54.7816 182.844C54.8941 182.956 54.956 183.109 54.956 183.268Z" stroke="black" stroke-opacity="0.75" stroke-width="1.5" stroke-linecap="round" stroke-linejoin="round"/>
<path d="M61.1253 185.188V178.148C61.1253 177.608 60.9553 177.081 60.6394 176.643C60.3236 176.205 59.8778 175.877 59.3653 175.706L52.8133 173.521C50.7019 172.826 48.4234 172.826 46.312 173.521L39.76 175.705C39.2477 175.876 38.8021 176.203 38.4863 176.641C38.1704 177.079 38.0003 177.605 38 178.145V185.185C38.0002 186.923 38.441 188.632 39.2811 190.153C40.1213 191.675 41.3333 192.958 42.804 193.884L48.2013 197.276C48.6098 197.53 49.0814 197.665 49.5627 197.665C50.0439 197.665 50.5156 197.53 50.924 197.276L56.32 193.884C57.7908 192.958 59.0029 191.675 59.8433 190.154C60.6836 188.633 61.1247 186.924 61.1253 185.186" stroke="black" stroke-opacity="0.75" stroke-width="1.5" stroke-linecap="round" stroke-linejoin="round"/>
<circle cx="87.2941" cy="185.294" r="3.29412" fill="black" fill-opacity="0.5"/>
<circle cx="98" cy="185.294" r="3.29412" fill="black" fill-opacity="0.5"/>
<circle cx="108.706" cy="185.294" r="3.29412" fill="black" fill-opacity="0.5"/>
<defs>
<filter id="filter0_d_147_363" x="9" y="230" width="324" height="61.6299" filterUnits="userSpaceOnUse" color-interpolation-filters="sRGB">
<feFlood flood-opacity="0" result="BackgroundImageFix"/>
<feColorMatrix in="SourceAlpha" type="matrix" values="0 0 0 0 0 0 0 0 0 0 0 0 0 0 0 0 0 0 127 0" result="hardAlpha"/>
<feOffset dy="4"/>
<feGaussianBlur stdDeviation="4"/>
<feComposite in2="hardAlpha" operator="out"/>
<feColorMatrix type="matrix" values="0 0 0 0 0 0 0 0 0 0 0 0 0 0 0 0 0 0 0.1 0"/>
<feBlend mode="normal" in2="BackgroundImageFix" result="effect1_dropShadow_147_363"/>
<feBlend mode="normal" in="SourceGraphic" in2="effect1_dropShadow_147_363" result="shape"/>
</filter>
</defs>
</svg>
