<svg width="255" height="78" viewBox="0 0 255 78" fill="none" xmlns="http://www.w3.org/2000/svg">
<rect width="351" height="78" rx="5" fill="white"/>
<rect x="0.5" y="0.5" width="350" height="77" rx="4.5" stroke="black" stroke-opacity="0.1"/>
<circle cx="23" cy="39" r="8" fill="#FF1313"/>
<path d="M60.174 33.216C59.454 33.216 58.77 33.144 58.122 33C57.474 32.856 56.898 32.628 56.394 32.316C55.902 31.992 55.512 31.59 55.224 31.11C54.948 30.618 54.81 30.024 54.81 29.328C54.81 29.268 54.81 29.208 54.81 29.148C54.81 29.076 54.816 29.022 54.828 28.986H57.492C57.48 29.022 57.474 29.07 57.474 29.13C57.474 29.19 57.474 29.244 57.474 29.292C57.474 29.676 57.576 30 57.78 30.264C57.996 30.528 58.308 30.726 58.716 30.858C59.124 30.99 59.598 31.056 60.138 31.056C60.486 31.056 60.792 31.038 61.056 31.002C61.332 30.954 61.572 30.894 61.776 30.822C61.992 30.738 62.166 30.642 62.298 30.534C62.442 30.426 62.544 30.3 62.604 30.156C62.676 30.012 62.712 29.85 62.712 29.67C62.712 29.346 62.604 29.082 62.388 28.878C62.184 28.674 61.896 28.5 61.524 28.356C61.164 28.212 60.756 28.08 60.3 27.96C59.844 27.84 59.376 27.72 58.896 27.6C58.416 27.468 57.948 27.312 57.492 27.132C57.036 26.94 56.628 26.712 56.268 26.448C55.908 26.184 55.62 25.848 55.404 25.44C55.188 25.032 55.08 24.54 55.08 23.964C55.08 23.352 55.206 22.824 55.458 22.38C55.722 21.936 56.088 21.57 56.556 21.282C57.024 20.994 57.564 20.784 58.176 20.652C58.788 20.508 59.454 20.436 60.174 20.436C60.846 20.436 61.482 20.508 62.082 20.652C62.682 20.784 63.21 21 63.666 21.3C64.122 21.6 64.476 21.978 64.728 22.434C64.992 22.89 65.124 23.43 65.124 24.054V24.27H62.514V24.126C62.514 23.802 62.418 23.526 62.226 23.298C62.034 23.07 61.764 22.89 61.416 22.758C61.068 22.626 60.66 22.56 60.192 22.56C59.688 22.56 59.256 22.608 58.896 22.704C58.548 22.8 58.278 22.944 58.086 23.136C57.906 23.316 57.816 23.532 57.816 23.784C57.816 24.072 57.918 24.312 58.122 24.504C58.338 24.684 58.626 24.846 58.986 24.99C59.358 25.122 59.772 25.242 60.228 25.35C60.684 25.458 61.152 25.578 61.632 25.71C62.112 25.842 62.58 25.998 63.036 26.178C63.492 26.358 63.9 26.586 64.26 26.862C64.62 27.126 64.908 27.456 65.124 27.852C65.34 28.248 65.448 28.722 65.448 29.274C65.448 30.222 65.22 30.984 64.764 31.56C64.308 32.136 63.684 32.556 62.892 32.82C62.1 33.084 61.194 33.216 60.174 33.216ZM71.8868 33.216C70.8788 33.216 70.0328 33.042 69.3488 32.694C68.6648 32.334 68.1428 31.788 67.7828 31.056C67.4348 30.312 67.2608 29.382 67.2608 28.266C67.2608 27.126 67.4348 26.196 67.7828 25.476C68.1428 24.744 68.6648 24.198 69.3488 23.838C70.0448 23.478 70.8908 23.298 71.8868 23.298C72.5348 23.298 73.1168 23.376 73.6328 23.532C74.1608 23.688 74.6168 23.928 75.0008 24.252C75.3848 24.576 75.6728 24.978 75.8648 25.458C76.0688 25.926 76.1708 26.484 76.1708 27.132H73.6688C73.6688 26.7 73.6028 26.346 73.4708 26.07C73.3388 25.794 73.1348 25.584 72.8588 25.44C72.5948 25.296 72.2588 25.224 71.8508 25.224C71.3708 25.224 70.9808 25.332 70.6808 25.548C70.3808 25.764 70.1588 26.082 70.0148 26.502C69.8708 26.922 69.7988 27.444 69.7988 28.068V28.482C69.7988 29.094 69.8708 29.61 70.0148 30.03C70.1708 30.45 70.4048 30.768 70.7168 30.984C71.0288 31.188 71.4368 31.29 71.9408 31.29C72.3488 31.29 72.6848 31.218 72.9488 31.074C73.2248 30.93 73.4348 30.714 73.5788 30.426C73.7228 30.138 73.7948 29.79 73.7948 29.382H76.1708C76.1708 29.994 76.0688 30.54 75.8648 31.02C75.6728 31.5 75.3848 31.902 75.0008 32.226C74.6288 32.55 74.1788 32.796 73.6508 32.964C73.1228 33.132 72.5348 33.216 71.8868 33.216ZM80.9092 33.216C80.5972 33.216 80.2612 33.18 79.9012 33.108C79.5532 33.036 79.2232 32.91 78.9112 32.73C78.5992 32.538 78.3412 32.268 78.1372 31.92C77.9452 31.56 77.8492 31.104 77.8492 30.552C77.8492 29.892 77.9932 29.346 78.2812 28.914C78.5692 28.482 78.9772 28.146 79.5052 27.906C80.0452 27.654 80.6872 27.48 81.4312 27.384C82.1752 27.288 82.9972 27.24 83.8972 27.24V26.538C83.8972 26.262 83.8492 26.022 83.7532 25.818C83.6692 25.614 83.5132 25.452 83.2852 25.332C83.0692 25.212 82.7632 25.152 82.3672 25.152C81.9712 25.152 81.6472 25.2 81.3952 25.296C81.1552 25.392 80.9812 25.518 80.8732 25.674C80.7772 25.818 80.7292 25.98 80.7292 26.16V26.376H78.2992C78.2872 26.316 78.2812 26.262 78.2812 26.214C78.2812 26.154 78.2812 26.082 78.2812 25.998C78.2812 25.446 78.4492 24.972 78.7852 24.576C79.1212 24.168 79.5952 23.856 80.2072 23.64C80.8192 23.424 81.5332 23.316 82.3492 23.316C83.2252 23.316 83.9572 23.43 84.5452 23.658C85.1452 23.886 85.6012 24.222 85.9132 24.666C86.2372 25.11 86.3992 25.668 86.3992 26.34V30.642C86.3992 30.858 86.4592 31.02 86.5792 31.128C86.7112 31.224 86.8552 31.272 87.0112 31.272H87.6052V32.91C87.4852 32.97 87.2992 33.03 87.0472 33.09C86.7952 33.162 86.4892 33.198 86.1292 33.198C85.7812 33.198 85.4692 33.144 85.1932 33.036C84.9292 32.94 84.7072 32.802 84.5272 32.622C84.3472 32.43 84.2212 32.202 84.1492 31.938H84.0232C83.8192 32.19 83.5672 32.412 83.2672 32.604C82.9792 32.796 82.6372 32.946 82.2412 33.054C81.8572 33.162 81.4132 33.216 80.9092 33.216ZM81.7552 31.326C82.0912 31.326 82.3912 31.278 82.6552 31.182C82.9192 31.074 83.1412 30.936 83.3212 30.768C83.5012 30.588 83.6392 30.372 83.7352 30.12C83.8432 29.868 83.8972 29.598 83.8972 29.31V28.788C83.2252 28.788 82.6252 28.836 82.0972 28.932C81.5692 29.016 81.1492 29.166 80.8372 29.382C80.5372 29.598 80.3872 29.898 80.3872 30.282C80.3872 30.498 80.4412 30.684 80.5492 30.84C80.6572 30.996 80.8132 31.116 81.0172 31.2C81.2212 31.284 81.4672 31.326 81.7552 31.326ZM89.2086 33V19.986H91.7106V33H89.2086ZM94.3674 36.204V23.532H96.4194L96.6354 24.81H96.7614C97.0734 24.294 97.4814 23.916 97.9854 23.676C98.4894 23.436 99.0474 23.316 99.6594 23.316C100.451 23.316 101.129 23.49 101.693 23.838C102.269 24.186 102.707 24.726 103.007 25.458C103.319 26.19 103.475 27.132 103.475 28.284C103.475 29.4 103.319 30.324 103.007 31.056C102.695 31.788 102.257 32.334 101.693 32.694C101.141 33.042 100.493 33.216 99.7494 33.216C99.3414 33.216 98.9634 33.168 98.6154 33.072C98.2674 32.988 97.9554 32.85 97.6794 32.658C97.4034 32.466 97.1694 32.232 96.9774 31.956H96.8694V36.204H94.3674ZM98.8854 31.164C99.3894 31.164 99.7854 31.068 100.073 30.876C100.373 30.672 100.589 30.372 100.721 29.976C100.853 29.568 100.919 29.07 100.919 28.482V28.068C100.919 27.468 100.853 26.97 100.721 26.574C100.589 26.166 100.373 25.866 100.073 25.674C99.7854 25.47 99.3894 25.368 98.8854 25.368C98.4174 25.368 98.0334 25.476 97.7334 25.692C97.4334 25.908 97.2114 26.22 97.0674 26.628C96.9234 27.036 96.8514 27.528 96.8514 28.104V28.41C96.8514 28.83 96.8934 29.214 96.9774 29.562C97.0614 29.898 97.1814 30.186 97.3374 30.426C97.5054 30.666 97.7154 30.852 97.9674 30.984C98.2194 31.104 98.5254 31.164 98.8854 31.164ZM109.981 33.216C108.937 33.216 108.061 33.042 107.353 32.694C106.645 32.334 106.111 31.788 105.751 31.056C105.391 30.324 105.211 29.394 105.211 28.266C105.211 27.126 105.391 26.196 105.751 25.476C106.111 24.744 106.639 24.204 107.335 23.856C108.043 23.496 108.907 23.316 109.927 23.316C110.887 23.316 111.697 23.49 112.357 23.838C113.017 24.174 113.515 24.702 113.851 25.422C114.187 26.13 114.355 27.048 114.355 28.176V28.824H107.749C107.773 29.376 107.857 29.844 108.001 30.228C108.157 30.612 108.391 30.9 108.703 31.092C109.027 31.272 109.453 31.362 109.981 31.362C110.269 31.362 110.527 31.326 110.755 31.254C110.995 31.182 111.199 31.074 111.367 30.93C111.535 30.786 111.667 30.606 111.763 30.39C111.859 30.174 111.907 29.928 111.907 29.652H114.355C114.355 30.252 114.247 30.774 114.031 31.218C113.815 31.662 113.515 32.034 113.131 32.334C112.747 32.622 112.285 32.844 111.745 33C111.217 33.144 110.629 33.216 109.981 33.216ZM107.785 27.24H111.781C111.781 26.88 111.733 26.568 111.637 26.304C111.553 26.04 111.433 25.824 111.277 25.656C111.121 25.488 110.929 25.368 110.701 25.296C110.485 25.212 110.239 25.17 109.963 25.17C109.507 25.17 109.123 25.248 108.811 25.404C108.511 25.548 108.277 25.776 108.109 26.088C107.953 26.388 107.845 26.772 107.785 27.24ZM116.55 33V19.986H119.052V33H116.55Z" fill="black"/>
<path d="M57.984 57V47.56H54.352V46.024H63.44V47.56H59.776V57H57.984ZM65.1889 57V45.432H66.8529V49.592H66.9649C67.1675 49.336 67.3969 49.1227 67.6529 48.952C67.9089 48.7707 68.1969 48.632 68.5169 48.536C68.8369 48.44 69.1889 48.392 69.5729 48.392C70.1062 48.392 70.5755 48.488 70.9809 48.68C71.3862 48.8613 71.7009 49.16 71.9249 49.576C72.1595 49.992 72.2769 50.552 72.2769 51.256V57H70.6129V51.512C70.6129 51.192 70.5702 50.9253 70.4849 50.712C70.4102 50.4987 70.2982 50.328 70.1489 50.2C69.9995 50.072 69.8235 49.9813 69.6209 49.928C69.4182 49.8747 69.1942 49.848 68.9489 49.848C68.5649 49.848 68.2129 49.9387 67.8929 50.12C67.5835 50.3013 67.3329 50.5573 67.1409 50.888C66.9489 51.2187 66.8529 51.6133 66.8529 52.072V57H65.1889ZM74.6807 47.128V45.432H76.3447V47.128H74.6807ZM74.6807 57V48.584H76.3447V57H74.6807ZM81.9172 57.192C81.3306 57.192 80.8132 57.128 80.3652 57C79.9172 56.872 79.5439 56.696 79.2452 56.472C78.9466 56.248 78.7172 55.9813 78.5572 55.672C78.4079 55.352 78.3332 55 78.3332 54.616C78.3332 54.5627 78.3332 54.5147 78.3332 54.472C78.3439 54.4293 78.3492 54.392 78.3492 54.36H79.9972C79.9972 54.392 79.9972 54.424 79.9972 54.456C79.9972 54.4773 79.9972 54.504 79.9972 54.536C79.9972 54.8667 80.0879 55.1333 80.2692 55.336C80.4506 55.528 80.6906 55.6667 80.9892 55.752C81.2986 55.8267 81.6346 55.864 81.9972 55.864C82.3172 55.864 82.6106 55.8267 82.8772 55.752C83.1546 55.6667 83.3786 55.544 83.5492 55.384C83.7306 55.224 83.8212 55.0213 83.8212 54.776C83.8212 54.456 83.7092 54.2107 83.4852 54.04C83.2612 53.8693 82.9679 53.736 82.6052 53.64C82.2426 53.5333 81.8639 53.4213 81.4692 53.304C81.1172 53.208 80.7652 53.1067 80.4132 53C80.0719 52.8827 79.7626 52.7333 79.4852 52.552C79.2079 52.3707 78.9839 52.1413 78.8132 51.864C78.6426 51.5867 78.5572 51.24 78.5572 50.824C78.5572 50.4293 78.6426 50.0827 78.8132 49.784C78.9839 49.4853 79.2186 49.2347 79.5172 49.032C79.8266 48.8293 80.1892 48.6747 80.6052 48.568C81.0319 48.4613 81.4959 48.408 81.9972 48.408C82.5199 48.408 82.9839 48.4667 83.3892 48.584C83.7946 48.6907 84.1359 48.8453 84.4132 49.048C84.7012 49.2507 84.9199 49.496 85.0692 49.784C85.2186 50.0613 85.2932 50.36 85.2932 50.68C85.2932 50.744 85.2879 50.8133 85.2772 50.888C85.2772 50.952 85.2772 50.9947 85.2772 51.016H83.6452V50.872C83.6452 50.6587 83.5866 50.4667 83.4692 50.296C83.3519 50.1253 83.1652 49.9867 82.9092 49.88C82.6639 49.7733 82.3332 49.72 81.9172 49.72C81.6399 49.72 81.3946 49.7467 81.1812 49.8C80.9679 49.8427 80.7919 49.9067 80.6532 49.992C80.5146 50.0773 80.4079 50.1787 80.3332 50.296C80.2692 50.4133 80.2372 50.5467 80.2372 50.696C80.2372 50.9413 80.3226 51.1333 80.4932 51.272C80.6746 51.4 80.9092 51.512 81.1972 51.608C81.4852 51.6933 81.7946 51.7893 82.1252 51.896C82.5092 52.0027 82.8986 52.1147 83.2932 52.232C83.6879 52.3387 84.0506 52.4773 84.3812 52.648C84.7226 52.8187 84.9946 53.0533 85.1972 53.352C85.4106 53.6507 85.5172 54.0507 85.5172 54.552C85.5172 55.0107 85.4266 55.4107 85.2452 55.752C85.0639 56.0933 84.8079 56.3707 84.4772 56.584C84.1572 56.7867 83.7786 56.936 83.3412 57.032C82.9039 57.1387 82.4292 57.192 81.9172 57.192ZM93.2211 57.192C92.7411 57.192 92.3625 57.1013 92.0851 56.92C91.8185 56.728 91.6265 56.488 91.5091 56.2C91.4025 55.9013 91.3491 55.5867 91.3491 55.256V49.96H90.2931V48.584H91.3811L91.6851 46.232H93.0131V48.584H94.5331V49.96H93.0131V55.064C93.0131 55.3093 93.0665 55.496 93.1731 55.624C93.2798 55.752 93.4558 55.816 93.7011 55.816H94.5331V56.936C94.4265 56.9787 94.2931 57.016 94.1331 57.048C93.9838 57.0907 93.8291 57.1227 93.6691 57.144C93.5091 57.176 93.3598 57.192 93.2211 57.192ZM99.9041 57.192C99.0295 57.192 98.2881 57.0373 97.6801 56.728C97.0828 56.408 96.6295 55.9227 96.3201 55.272C96.0215 54.6213 95.8721 53.7947 95.8721 52.792C95.8721 51.7787 96.0215 50.952 96.3201 50.312C96.6295 49.6613 97.0828 49.1813 97.6801 48.872C98.2881 48.552 99.0295 48.392 99.9041 48.392C100.8 48.392 101.547 48.552 102.144 48.872C102.741 49.1813 103.189 49.6613 103.488 50.312C103.797 50.952 103.952 51.7787 103.952 52.792C103.952 53.7947 103.797 54.6213 103.488 55.272C103.189 55.9227 102.741 56.408 102.144 56.728C101.547 57.0373 100.8 57.192 99.9041 57.192ZM99.9041 55.816C100.437 55.816 100.875 55.7147 101.216 55.512C101.557 55.2987 101.808 54.9787 101.968 54.552C102.139 54.1253 102.224 53.5867 102.224 52.936V52.648C102.224 51.9973 102.139 51.4587 101.968 51.032C101.808 50.6053 101.557 50.2907 101.216 50.088C100.875 49.8747 100.437 49.768 99.9041 49.768C99.3815 49.768 98.9495 49.8747 98.6081 50.088C98.2668 50.2907 98.0108 50.6053 97.8401 51.032C97.6801 51.4587 97.6001 51.9973 97.6001 52.648V52.936C97.6001 53.5867 97.6801 54.1253 97.8401 54.552C98.0108 54.9787 98.2668 55.2987 98.6081 55.512C98.9495 55.7147 99.3815 55.816 99.9041 55.816ZM109.552 57.192C108.678 57.192 107.936 57.0373 107.328 56.728C106.731 56.408 106.278 55.9227 105.968 55.272C105.67 54.6213 105.52 53.7947 105.52 52.792C105.52 51.7787 105.67 50.952 105.968 50.312C106.278 49.6613 106.731 49.1813 107.328 48.872C107.936 48.552 108.678 48.392 109.552 48.392C110.448 48.392 111.195 48.552 111.792 48.872C112.39 49.1813 112.838 49.6613 113.136 50.312C113.446 50.952 113.6 51.7787 113.6 52.792C113.6 53.7947 113.446 54.6213 113.136 55.272C112.838 55.9227 112.39 56.408 111.792 56.728C111.195 57.0373 110.448 57.192 109.552 57.192ZM109.552 55.816C110.086 55.816 110.523 55.7147 110.864 55.512C111.206 55.2987 111.456 54.9787 111.616 54.552C111.787 54.1253 111.872 53.5867 111.872 52.936V52.648C111.872 51.9973 111.787 51.4587 111.616 51.032C111.456 50.6053 111.206 50.2907 110.864 50.088C110.523 49.8747 110.086 49.768 109.552 49.768C109.03 49.768 108.598 49.8747 108.256 50.088C107.915 50.2907 107.659 50.6053 107.488 51.032C107.328 51.4587 107.248 51.9973 107.248 52.648V52.936C107.248 53.5867 107.328 54.1253 107.488 54.552C107.659 54.9787 107.915 55.2987 108.256 55.512C108.598 55.7147 109.03 55.816 109.552 55.816ZM115.616 57V45.432H117.28V57H115.616ZM123.35 47.128V45.432H125.014V47.128H123.35ZM123.35 57V48.584H125.014V57H123.35ZM130.587 57.192C130 57.192 129.483 57.128 129.035 57C128.587 56.872 128.213 56.696 127.915 56.472C127.616 56.248 127.387 55.9813 127.227 55.672C127.077 55.352 127.003 55 127.003 54.616C127.003 54.5627 127.003 54.5147 127.003 54.472C127.013 54.4293 127.019 54.392 127.019 54.36H128.667C128.667 54.392 128.667 54.424 128.667 54.456C128.667 54.4773 128.667 54.504 128.667 54.536C128.667 54.8667 128.757 55.1333 128.939 55.336C129.12 55.528 129.36 55.6667 129.659 55.752C129.968 55.8267 130.304 55.864 130.667 55.864C130.987 55.864 131.28 55.8267 131.547 55.752C131.824 55.6667 132.048 55.544 132.219 55.384C132.4 55.224 132.491 55.0213 132.491 54.776C132.491 54.456 132.379 54.2107 132.155 54.04C131.931 53.8693 131.637 53.736 131.275 53.64C130.912 53.5333 130.533 53.4213 130.139 53.304C129.787 53.208 129.435 53.1067 129.083 53C128.741 52.8827 128.432 52.7333 128.155 52.552C127.877 52.3707 127.653 52.1413 127.483 51.864C127.312 51.5867 127.227 51.24 127.227 50.824C127.227 50.4293 127.312 50.0827 127.483 49.784C127.653 49.4853 127.888 49.2347 128.187 49.032C128.496 48.8293 128.859 48.6747 129.275 48.568C129.701 48.4613 130.165 48.408 130.667 48.408C131.189 48.408 131.653 48.4667 132.059 48.584C132.464 48.6907 132.805 48.8453 133.083 49.048C133.371 49.2507 133.589 49.496 133.739 49.784C133.888 50.0613 133.963 50.36 133.963 50.68C133.963 50.744 133.957 50.8133 133.947 50.888C133.947 50.952 133.947 50.9947 133.947 51.016H132.315V50.872C132.315 50.6587 132.256 50.4667 132.139 50.296C132.021 50.1253 131.835 49.9867 131.579 49.88C131.333 49.7733 131.003 49.72 130.587 49.72C130.309 49.72 130.064 49.7467 129.851 49.8C129.637 49.8427 129.461 49.9067 129.323 49.992C129.184 50.0773 129.077 50.1787 129.003 50.296C128.939 50.4133 128.907 50.5467 128.907 50.696C128.907 50.9413 128.992 51.1333 129.163 51.272C129.344 51.4 129.579 51.512 129.867 51.608C130.155 51.6933 130.464 51.7893 130.795 51.896C131.179 52.0027 131.568 52.1147 131.963 52.232C132.357 52.3387 132.72 52.4773 133.051 52.648C133.392 52.8187 133.664 53.0533 133.867 53.352C134.08 53.6507 134.187 54.0507 134.187 54.552C134.187 55.0107 134.096 55.4107 133.915 55.752C133.733 56.0933 133.477 56.3707 133.147 56.584C132.827 56.7867 132.448 56.936 132.011 57.032C131.573 57.1387 131.099 57.192 130.587 57.192Z" fill="black" fill-opacity="0.5"/>
<path d="M139.795 57V48.584H141.171L141.315 49.784H141.427C141.619 49.4747 141.837 49.2187 142.083 49.016C142.339 48.8133 142.621 48.6587 142.931 48.552C143.251 48.4453 143.592 48.392 143.955 48.392C144.477 48.392 144.931 48.4987 145.315 48.712C145.709 48.9253 146.008 49.2827 146.211 49.784H146.323C146.515 49.4853 146.739 49.2347 146.995 49.032C147.251 48.8187 147.539 48.6587 147.859 48.552C148.189 48.4453 148.541 48.392 148.915 48.392C149.416 48.392 149.859 48.4827 150.243 48.664C150.627 48.8347 150.931 49.128 151.155 49.544C151.379 49.9493 151.491 50.4933 151.491 51.176V57H149.827V51.48C149.827 51.16 149.789 50.8987 149.715 50.696C149.64 50.4827 149.539 50.3173 149.411 50.2C149.283 50.072 149.128 49.9813 148.947 49.928C148.765 49.8747 148.568 49.848 148.355 49.848C148.003 49.848 147.688 49.944 147.411 50.136C147.133 50.3173 146.909 50.5733 146.739 50.904C146.568 51.2347 146.483 51.624 146.483 52.072V57H144.819V51.48C144.819 51.16 144.781 50.8987 144.707 50.696C144.632 50.4827 144.531 50.3173 144.403 50.2C144.275 50.072 144.12 49.9813 143.939 49.928C143.757 49.8747 143.565 49.848 143.363 49.848C143.011 49.848 142.691 49.944 142.403 50.136C142.115 50.3173 141.885 50.5733 141.715 50.904C141.544 51.2347 141.459 51.624 141.459 52.072V57H139.795ZM153.88 47.128V45.432H155.544V47.128H153.88ZM153.88 57V48.584H155.544V57H153.88ZM161.117 57.192C160.53 57.192 160.013 57.128 159.565 57C159.117 56.872 158.743 56.696 158.445 56.472C158.146 56.248 157.917 55.9813 157.757 55.672C157.607 55.352 157.533 55 157.533 54.616C157.533 54.5627 157.533 54.5147 157.533 54.472C157.543 54.4293 157.549 54.392 157.549 54.36H159.197C159.197 54.392 159.197 54.424 159.197 54.456C159.197 54.4773 159.197 54.504 159.197 54.536C159.197 54.8667 159.287 55.1333 159.469 55.336C159.65 55.528 159.89 55.6667 160.189 55.752C160.498 55.8267 160.834 55.864 161.197 55.864C161.517 55.864 161.81 55.8267 162.077 55.752C162.354 55.6667 162.578 55.544 162.749 55.384C162.93 55.224 163.021 55.0213 163.021 54.776C163.021 54.456 162.909 54.2107 162.685 54.04C162.461 53.8693 162.167 53.736 161.805 53.64C161.442 53.5333 161.063 53.4213 160.669 53.304C160.317 53.208 159.965 53.1067 159.613 53C159.271 52.8827 158.962 52.7333 158.685 52.552C158.407 52.3707 158.183 52.1413 158.013 51.864C157.842 51.5867 157.757 51.24 157.757 50.824C157.757 50.4293 157.842 50.0827 158.013 49.784C158.183 49.4853 158.418 49.2347 158.717 49.032C159.026 48.8293 159.389 48.6747 159.805 48.568C160.231 48.4613 160.695 48.408 161.197 48.408C161.719 48.408 162.183 48.4667 162.589 48.584C162.994 48.6907 163.335 48.8453 163.613 49.048C163.901 49.2507 164.119 49.496 164.269 49.784C164.418 50.0613 164.493 50.36 164.493 50.68C164.493 50.744 164.487 50.8133 164.477 50.888C164.477 50.952 164.477 50.9947 164.477 51.016H162.845V50.872C162.845 50.6587 162.786 50.4667 162.669 50.296C162.551 50.1253 162.365 49.9867 162.109 49.88C161.863 49.7733 161.533 49.72 161.117 49.72C160.839 49.72 160.594 49.7467 160.381 49.8C160.167 49.8427 159.991 49.9067 159.853 49.992C159.714 50.0773 159.607 50.1787 159.533 50.296C159.469 50.4133 159.437 50.5467 159.437 50.696C159.437 50.9413 159.522 51.1333 159.693 51.272C159.874 51.4 160.109 51.512 160.397 51.608C160.685 51.6933 160.994 51.7893 161.325 51.896C161.709 52.0027 162.098 52.1147 162.493 52.232C162.887 52.3387 163.25 52.4773 163.581 52.648C163.922 52.8187 164.194 53.0533 164.397 53.352C164.61 53.6507 164.717 54.0507 164.717 54.552C164.717 55.0107 164.626 55.4107 164.445 55.752C164.263 56.0933 164.007 56.3707 163.677 56.584C163.357 56.7867 162.978 56.936 162.541 57.032C162.103 57.1387 161.629 57.192 161.117 57.192ZM169.827 57.192C169.241 57.192 168.723 57.128 168.275 57C167.827 56.872 167.454 56.696 167.155 56.472C166.857 56.248 166.627 55.9813 166.467 55.672C166.318 55.352 166.243 55 166.243 54.616C166.243 54.5627 166.243 54.5147 166.243 54.472C166.254 54.4293 166.259 54.392 166.259 54.36H167.907C167.907 54.392 167.907 54.424 167.907 54.456C167.907 54.4773 167.907 54.504 167.907 54.536C167.907 54.8667 167.998 55.1333 168.179 55.336C168.361 55.528 168.601 55.6667 168.899 55.752C169.209 55.8267 169.545 55.864 169.907 55.864C170.227 55.864 170.521 55.8267 170.787 55.752C171.065 55.6667 171.289 55.544 171.459 55.384C171.641 55.224 171.731 55.0213 171.731 54.776C171.731 54.456 171.619 54.2107 171.395 54.04C171.171 53.8693 170.878 53.736 170.515 53.64C170.153 53.5333 169.774 53.4213 169.379 53.304C169.027 53.208 168.675 53.1067 168.323 53C167.982 52.8827 167.673 52.7333 167.395 52.552C167.118 52.3707 166.894 52.1413 166.723 51.864C166.553 51.5867 166.467 51.24 166.467 50.824C166.467 50.4293 166.553 50.0827 166.723 49.784C166.894 49.4853 167.129 49.2347 167.427 49.032C167.737 48.8293 168.099 48.6747 168.515 48.568C168.942 48.4613 169.406 48.408 169.907 48.408C170.43 48.408 170.894 48.4667 171.299 48.584C171.705 48.6907 172.046 48.8453 172.323 49.048C172.611 49.2507 172.83 49.496 172.979 49.784C173.129 50.0613 173.203 50.36 173.203 50.68C173.203 50.744 173.198 50.8133 173.187 50.888C173.187 50.952 173.187 50.9947 173.187 51.016H171.555V50.872C171.555 50.6587 171.497 50.4667 171.379 50.296C171.262 50.1253 171.075 49.9867 170.819 49.88C170.574 49.7733 170.243 49.72 169.827 49.72C169.55 49.72 169.305 49.7467 169.091 49.8C168.878 49.8427 168.702 49.9067 168.563 49.992C168.425 50.0773 168.318 50.1787 168.243 50.296C168.179 50.4133 168.147 50.5467 168.147 50.696C168.147 50.9413 168.233 51.1333 168.403 51.272C168.585 51.4 168.819 51.512 169.107 51.608C169.395 51.6933 169.705 51.7893 170.035 51.896C170.419 52.0027 170.809 52.1147 171.203 52.232C171.598 52.3387 171.961 52.4773 172.291 52.648C172.633 52.8187 172.905 53.0533 173.107 53.352C173.321 53.6507 173.427 54.0507 173.427 54.552C173.427 55.0107 173.337 55.4107 173.155 55.752C172.974 56.0933 172.718 56.3707 172.387 56.584C172.067 56.7867 171.689 56.936 171.251 57.032C170.814 57.1387 170.339 57.192 169.827 57.192ZM175.434 47.128V45.432H177.098V47.128H175.434ZM175.434 57V48.584H177.098V57H175.434ZM179.566 57V48.584H180.942L181.086 49.784H181.198C181.401 49.4747 181.641 49.2187 181.918 49.016C182.196 48.8133 182.5 48.6587 182.83 48.552C183.172 48.4453 183.545 48.392 183.95 48.392C184.484 48.392 184.953 48.488 185.358 48.68C185.764 48.8613 186.078 49.16 186.302 49.576C186.537 49.992 186.654 50.552 186.654 51.256V57H184.99V51.512C184.99 51.192 184.948 50.9253 184.862 50.712C184.788 50.4987 184.676 50.328 184.526 50.2C184.377 50.072 184.201 49.9813 183.998 49.928C183.796 49.8747 183.572 49.848 183.326 49.848C182.942 49.848 182.59 49.944 182.27 50.136C181.961 50.3173 181.71 50.5733 181.518 50.904C181.326 51.2347 181.23 51.624 181.23 52.072V57H179.566ZM190.466 59.912C190.082 59.912 189.72 59.832 189.378 59.672C189.048 59.512 188.781 59.2827 188.578 58.984C188.376 58.6853 188.274 58.3227 188.274 57.896C188.274 57.4267 188.402 57.048 188.658 56.76C188.925 56.4613 189.234 56.2373 189.586 56.088C189.33 55.9707 189.122 55.8 188.962 55.576C188.813 55.352 188.738 55.096 188.738 54.808C188.738 54.4133 188.882 54.0933 189.17 53.848C189.458 53.6027 189.794 53.4427 190.178 53.368C189.805 53.1227 189.512 52.8133 189.298 52.44C189.096 52.0667 188.994 51.6453 188.994 51.176C188.994 50.6107 189.128 50.1253 189.394 49.72C189.661 49.304 190.056 48.9787 190.578 48.744C191.112 48.5093 191.757 48.392 192.514 48.392C192.845 48.392 193.154 48.4187 193.442 48.472C193.741 48.5147 194.008 48.5787 194.242 48.664C194.616 48.472 194.882 48.2427 195.042 47.976C195.202 47.6987 195.298 47.4427 195.33 47.208H196.962C196.962 47.56 196.888 47.88 196.738 48.168C196.6 48.4453 196.402 48.68 196.146 48.872C195.901 49.0533 195.602 49.1813 195.25 49.256C195.517 49.5013 195.714 49.7893 195.842 50.12C195.981 50.44 196.05 50.792 196.05 51.176C196.05 51.7307 195.922 52.216 195.666 52.632C195.41 53.048 195.021 53.3733 194.498 53.608C193.986 53.8427 193.352 53.96 192.594 53.96H191.282C191.026 53.96 190.818 54.0133 190.658 54.12C190.509 54.2267 190.434 54.3867 190.434 54.6C190.434 54.7813 190.509 54.9307 190.658 55.048C190.808 55.1653 191.005 55.224 191.25 55.224H194.802C195.421 55.224 195.933 55.432 196.338 55.848C196.744 56.2533 196.946 56.776 196.946 57.416C196.946 57.8853 196.824 58.3067 196.578 58.68C196.344 59.064 196.008 59.3627 195.57 59.576C195.144 59.8 194.648 59.912 194.082 59.912H190.466ZM191.01 58.68H194.066C194.29 58.68 194.493 58.6373 194.674 58.552C194.856 58.4667 195 58.344 195.106 58.184C195.213 58.0347 195.266 57.864 195.266 57.672C195.266 57.352 195.165 57.1013 194.962 56.92C194.77 56.7387 194.53 56.648 194.242 56.648H191.01C190.712 56.648 190.461 56.7493 190.258 56.952C190.056 57.144 189.954 57.384 189.954 57.672C189.954 57.9707 190.05 58.2107 190.242 58.392C190.445 58.584 190.701 58.68 191.01 58.68ZM192.53 52.76C193.16 52.76 193.629 52.6213 193.938 52.344C194.248 52.056 194.402 51.6667 194.402 51.176C194.402 50.6747 194.248 50.2907 193.938 50.024C193.629 49.7467 193.16 49.608 192.53 49.608C191.901 49.608 191.432 49.7467 191.122 50.024C190.813 50.2907 190.658 50.6747 190.658 51.176C190.658 51.496 190.722 51.7787 190.85 52.024C190.989 52.2587 191.197 52.44 191.474 52.568C191.762 52.696 192.114 52.76 192.53 52.76ZM198.886 57V55.144H200.662V57H198.886Z" fill="black"/>
</svg>
