<svg width="121" height="27" viewBox="0 0 121 27" fill="none" xmlns="http://www.w3.org/2000/svg">
<path d="M17.956 11.2679V13.6639C17.956 13.823 17.8928 13.9757 17.7803 14.0882C17.6677 14.2007 17.5151 14.2639 17.356 14.2639H14.36V17.2599C14.36 17.419 14.2968 17.5717 14.1843 17.6842C14.0717 17.7967 13.9191 17.8599 13.76 17.8599H11.364C11.2049 17.8599 11.0523 17.7967 10.9397 17.6842C10.8272 17.5717 10.764 17.419 10.764 17.2599V14.2639H7.77067C7.61154 14.2639 7.45893 14.2007 7.34641 14.0882C7.23388 13.9757 7.17067 13.823 7.17067 13.6639V11.2679C7.17067 11.1088 7.23388 10.9562 7.34641 10.8436C7.45893 10.7311 7.61154 10.6679 7.77067 10.6679H10.7667V7.67191C10.767 7.51301 10.8304 7.36074 10.9429 7.24851C11.0554 7.13627 11.2078 7.07324 11.3667 7.07324H13.7627C13.9218 7.07324 14.0744 7.13646 14.1869 7.24898C14.2995 7.3615 14.3627 7.51411 14.3627 7.67324V10.6679H17.3573C17.5165 10.6679 17.6691 10.7311 17.7816 10.8436C17.8941 10.9562 17.956 11.1088 17.956 11.2679Z" stroke="white" stroke-width="1.5" stroke-linecap="round" stroke-linejoin="round"/>
<path d="M24.1253 13.1877V6.14774C24.1253 5.60758 23.9553 5.08112 23.6394 4.64296C23.3236 4.20479 22.8778 3.87713 22.3653 3.70641L15.8133 1.52107C13.7019 0.826308 11.4234 0.826308 9.312 1.52107L2.76 3.70507C2.24775 3.87573 1.80215 4.20318 1.48628 4.64108C1.17042 5.07898 1.0003 5.60514 1 6.14507V13.1851C1.00024 14.9229 1.44102 16.6322 2.28113 18.1534C3.12125 19.6746 4.33329 20.9581 5.804 21.8837L11.2013 25.2757C11.6098 25.5303 12.0814 25.6653 12.5627 25.6653C13.0439 25.6653 13.5156 25.5303 13.924 25.2757L19.32 21.8837C20.7908 20.9583 22.0029 19.6752 22.8433 18.1542C23.6836 16.6333 24.1247 14.9241 24.1253 13.1864" stroke="white" stroke-width="1.5" stroke-linecap="round" stroke-linejoin="round"/>
<path d="M37.6133 18.525C36.9733 18.525 36.3653 18.461 35.7893 18.333C35.2133 18.205 34.7013 18.0023 34.2533 17.725C33.816 17.437 33.4693 17.0797 33.2133 16.653C32.968 16.2157 32.8453 15.6877 32.8453 15.069C32.8453 15.0157 32.8453 14.9623 32.8453 14.909C32.8453 14.845 32.8507 14.797 32.8613 14.765H35.2293C35.2187 14.797 35.2133 14.8397 35.2133 14.893C35.2133 14.9463 35.2133 14.9943 35.2133 15.037C35.2133 15.3783 35.304 15.6663 35.4853 15.901C35.6773 16.1357 35.9547 16.3117 36.3173 16.429C36.68 16.5463 37.1013 16.605 37.5813 16.605C37.8907 16.605 38.1627 16.589 38.3973 16.557C38.6427 16.5143 38.856 16.461 39.0373 16.397C39.2293 16.3223 39.384 16.237 39.5013 16.141C39.6293 16.045 39.72 15.933 39.7733 15.805C39.8373 15.677 39.8693 15.533 39.8693 15.373C39.8693 15.085 39.7733 14.8503 39.5813 14.669C39.4 14.4877 39.144 14.333 38.8133 14.205C38.4933 14.077 38.1307 13.9597 37.7253 13.853C37.32 13.7463 36.904 13.6397 36.4773 13.533C36.0507 13.4157 35.6347 13.277 35.2293 13.117C34.824 12.9463 34.4613 12.7437 34.1413 12.509C33.8213 12.2743 33.5653 11.9757 33.3733 11.613C33.1813 11.2503 33.0853 10.813 33.0853 10.301C33.0853 9.75701 33.1973 9.28767 33.4213 8.89301C33.656 8.49834 33.9813 8.17301 34.3973 7.91701C34.8133 7.66101 35.2933 7.47434 35.8373 7.35701C36.3813 7.22901 36.9733 7.16501 37.6133 7.16501C38.2107 7.16501 38.776 7.22901 39.3093 7.35701C39.8427 7.47434 40.312 7.66634 40.7173 7.93301C41.1227 8.19967 41.4373 8.53567 41.6613 8.94101C41.896 9.34634 42.0133 9.82634 42.0133 10.381V10.573H39.6933V10.445C39.6933 10.157 39.608 9.91167 39.4373 9.70901C39.2667 9.50634 39.0267 9.34634 38.7173 9.22901C38.408 9.11167 38.0453 9.05301 37.6293 9.05301C37.1813 9.05301 36.7973 9.09567 36.4773 9.18101C36.168 9.26634 35.928 9.39434 35.7573 9.56501C35.5973 9.72501 35.5173 9.91701 35.5173 10.141C35.5173 10.397 35.608 10.6103 35.7893 10.781C35.9813 10.941 36.2373 11.085 36.5573 11.213C36.888 11.3303 37.256 11.437 37.6613 11.533C38.0667 11.629 38.4827 11.7357 38.9093 11.853C39.336 11.9703 39.752 12.109 40.1573 12.269C40.5627 12.429 40.9253 12.6317 41.2453 12.877C41.5653 13.1117 41.8213 13.405 42.0133 13.757C42.2053 14.109 42.3013 14.5303 42.3013 15.021C42.3013 15.8637 42.0987 16.541 41.6933 17.053C41.288 17.565 40.7333 17.9383 40.0293 18.173C39.3253 18.4077 38.52 18.525 37.6133 18.525ZM47.0487 18.525C46.1954 18.525 45.518 18.2903 45.0167 17.821C44.5154 17.3517 44.2647 16.5943 44.2647 15.549V9.91701H46.4887V15.181C46.4887 15.4583 46.5207 15.693 46.5847 15.885C46.6487 16.0663 46.7394 16.2157 46.8567 16.333C46.9847 16.4503 47.1394 16.5357 47.3207 16.589C47.502 16.6423 47.7047 16.669 47.9287 16.669C48.2594 16.669 48.558 16.589 48.8247 16.429C49.0914 16.269 49.2994 16.0503 49.4487 15.773C49.598 15.485 49.6727 15.165 49.6727 14.813V9.91701H51.8967V18.333H50.0727L49.9127 17.181H49.8007C49.598 17.4477 49.358 17.6823 49.0807 17.885C48.814 18.0877 48.51 18.2423 48.1687 18.349C47.8274 18.4663 47.454 18.525 47.0487 18.525ZM54.2581 18.333V9.91701H56.0981L56.2741 11.229H56.3861C56.4928 10.9517 56.6314 10.701 56.8021 10.477C56.9728 10.2423 57.1861 10.0557 57.4421 9.91701C57.6981 9.77834 57.9968 9.70901 58.3381 9.70901C58.5194 9.70901 58.6848 9.73034 58.8341 9.77301C58.9834 9.80501 59.0954 9.83701 59.1701 9.86901V11.885H58.4821C58.1514 11.885 57.8581 11.933 57.6021 12.029C57.3568 12.1143 57.1488 12.253 56.9781 12.445C56.8074 12.637 56.6794 12.8717 56.5941 13.149C56.5194 13.4263 56.4821 13.7517 56.4821 14.125V18.333H54.2581ZM62.0322 21.341C61.6589 21.341 61.3069 21.261 60.9762 21.101C60.6455 20.9517 60.3789 20.7277 60.1762 20.429C59.9735 20.1303 59.8722 19.773 59.8722 19.357C59.8722 18.8877 60.0055 18.5143 60.2722 18.237C60.5495 17.949 60.8589 17.7357 61.2002 17.597C60.9549 17.4583 60.7522 17.277 60.5922 17.053C60.4429 16.829 60.3682 16.5677 60.3682 16.269C60.3682 15.853 60.5175 15.517 60.8162 15.261C61.1255 14.9943 61.4775 14.8237 61.8722 14.749C61.4775 14.5037 61.1682 14.1943 60.9442 13.821C60.7309 13.437 60.6242 13.0103 60.6242 12.541C60.6242 11.933 60.7735 11.421 61.0722 11.005C61.3815 10.589 61.8189 10.2743 62.3842 10.061C62.9602 9.83701 63.6375 9.72501 64.4162 9.72501C64.7255 9.72501 65.0135 9.74101 65.2802 9.77301C65.5575 9.80501 65.8082 9.85834 66.0322 9.93301C66.4269 9.69834 66.6935 9.44234 66.8322 9.16501C66.9815 8.87701 67.0615 8.64767 67.0722 8.47701H69.1362C69.1362 8.87167 69.0615 9.21301 68.9122 9.50101C68.7735 9.78901 68.5709 10.029 68.3042 10.221C68.0375 10.4023 67.7175 10.5357 67.3442 10.621C67.6215 10.8557 67.8349 11.1383 67.9842 11.469C68.1335 11.7997 68.2082 12.157 68.2082 12.541C68.2082 13.1383 68.0642 13.6503 67.7762 14.077C67.4882 14.493 67.0775 14.813 66.5442 15.037C66.0215 15.261 65.3922 15.373 64.6562 15.373H63.3762C63.1202 15.373 62.9282 15.421 62.8002 15.517C62.6722 15.6023 62.6082 15.7303 62.6082 15.901C62.6082 16.0397 62.6615 16.1623 62.7682 16.269C62.8855 16.365 63.0722 16.413 63.3282 16.413H66.8322C67.5362 16.413 68.0962 16.6317 68.5122 17.069C68.9389 17.4957 69.1522 18.045 69.1522 18.717C69.1522 19.229 69.0189 19.6823 68.7522 20.077C68.4855 20.4717 68.1175 20.781 67.6482 21.005C67.1789 21.229 66.6402 21.341 66.0322 21.341H62.0322ZM62.9602 19.853H65.9202C66.1122 19.853 66.2829 19.8157 66.4322 19.741C66.5815 19.677 66.6989 19.581 66.7842 19.453C66.8695 19.3357 66.9122 19.197 66.9122 19.037C66.9122 18.7597 66.8269 18.5517 66.6562 18.413C66.4855 18.2743 66.2722 18.205 66.0162 18.205H62.9602C62.7042 18.205 62.4909 18.2797 62.3202 18.429C62.1602 18.5783 62.0802 18.7757 62.0802 19.021C62.0802 19.2663 62.1602 19.4637 62.3202 19.613C62.4909 19.773 62.7042 19.853 62.9602 19.853ZM64.4162 13.933C64.9389 13.933 65.3335 13.8157 65.6002 13.581C65.8775 13.3357 66.0162 12.989 66.0162 12.541C66.0162 12.093 65.8775 11.7517 65.6002 11.517C65.3335 11.2717 64.9389 11.149 64.4162 11.149C63.9042 11.149 63.5095 11.2717 63.2322 11.517C62.9655 11.7517 62.8322 12.093 62.8322 12.541C62.8322 12.829 62.8909 13.0797 63.0082 13.293C63.1255 13.5063 63.3015 13.6663 63.5362 13.773C63.7709 13.8797 64.0642 13.933 64.4162 13.933ZM70.695 8.68501V6.76501H72.919V8.68501H70.695ZM70.695 18.333V9.91701H72.919V18.333H70.695ZM78.9766 18.525C78.0806 18.525 77.3286 18.3703 76.7206 18.061C76.1126 17.741 75.6486 17.2557 75.3286 16.605C75.0193 15.9437 74.8646 15.117 74.8646 14.125C74.8646 13.1117 75.0193 12.285 75.3286 11.645C75.6486 10.9943 76.1126 10.509 76.7206 10.189C77.3393 9.86901 78.0913 9.70901 78.9766 9.70901C79.5526 9.70901 80.0699 9.77834 80.5286 9.91701C80.9979 10.0557 81.4033 10.269 81.7446 10.557C82.0859 10.845 82.3419 11.2023 82.5126 11.629C82.6939 12.045 82.7846 12.541 82.7846 13.117H80.5606C80.5606 12.733 80.5019 12.4183 80.3846 12.173C80.2673 11.9277 80.0859 11.741 79.8406 11.613C79.6059 11.485 79.3073 11.421 78.9446 11.421C78.5179 11.421 78.1713 11.517 77.9046 11.709C77.6379 11.901 77.4406 12.1837 77.3126 12.557C77.1846 12.9303 77.1206 13.3943 77.1206 13.949V14.317C77.1206 14.861 77.1846 15.3197 77.3126 15.693C77.4513 16.0663 77.6593 16.349 77.9366 16.541C78.2139 16.7223 78.5766 16.813 79.0246 16.813C79.3873 16.813 79.6859 16.749 79.9206 16.621C80.1659 16.493 80.3526 16.301 80.4806 16.045C80.6086 15.789 80.6726 15.4797 80.6726 15.117H82.7846C82.7846 15.661 82.6939 16.1463 82.5126 16.573C82.3419 16.9997 82.0859 17.357 81.7446 17.645C81.4139 17.933 81.0139 18.1517 80.5446 18.301C80.0753 18.4503 79.5526 18.525 78.9766 18.525ZM86.9965 18.525C86.7191 18.525 86.4205 18.493 86.1005 18.429C85.7911 18.365 85.4978 18.253 85.2205 18.093C84.9431 17.9223 84.7138 17.6823 84.5325 17.373C84.3618 17.053 84.2765 16.6477 84.2765 16.157C84.2765 15.5703 84.4045 15.085 84.6605 14.701C84.9165 14.317 85.2791 14.0183 85.7485 13.805C86.2285 13.581 86.7991 13.4263 87.4605 13.341C88.1218 13.2557 88.8525 13.213 89.6525 13.213V12.589C89.6525 12.3437 89.6098 12.1303 89.5245 11.949C89.4498 11.7677 89.3111 11.6237 89.1085 11.517C88.9165 11.4103 88.6445 11.357 88.2925 11.357C87.9405 11.357 87.6525 11.3997 87.4285 11.485C87.2151 11.5703 87.0605 11.6823 86.9645 11.821C86.8791 11.949 86.8365 12.093 86.8365 12.253V12.445H84.6765C84.6658 12.3917 84.6605 12.3437 84.6605 12.301C84.6605 12.2477 84.6605 12.1837 84.6605 12.109C84.6605 11.6183 84.8098 11.197 85.1085 10.845C85.4071 10.4823 85.8285 10.205 86.3725 10.013C86.9165 9.82101 87.5511 9.72501 88.2765 9.72501C89.0551 9.72501 89.7058 9.82634 90.2285 10.029C90.7618 10.2317 91.1671 10.5303 91.4445 10.925C91.7325 11.3197 91.8765 11.8157 91.8765 12.413V16.237C91.8765 16.429 91.9298 16.573 92.0365 16.669C92.1538 16.7543 92.2818 16.797 92.4205 16.797H92.9485V18.253C92.8418 18.3063 92.6765 18.3597 92.4525 18.413C92.2285 18.477 91.9565 18.509 91.6365 18.509C91.3271 18.509 91.0498 18.461 90.8045 18.365C90.5698 18.2797 90.3725 18.157 90.2125 17.997C90.0525 17.8263 89.9405 17.6237 89.8765 17.389H89.7645C89.5831 17.613 89.3591 17.8103 89.0925 17.981C88.8365 18.1517 88.5325 18.285 88.1805 18.381C87.8391 18.477 87.4445 18.525 86.9965 18.525ZM87.7485 16.845C88.0471 16.845 88.3138 16.8023 88.5485 16.717C88.7831 16.621 88.9805 16.4983 89.1405 16.349C89.3005 16.189 89.4231 15.997 89.5085 15.773C89.6045 15.549 89.6525 15.309 89.6525 15.053V14.589C89.0551 14.589 88.5218 14.6317 88.0525 14.717C87.5831 14.7917 87.2098 14.925 86.9325 15.117C86.6658 15.309 86.5325 15.5757 86.5325 15.917C86.5325 16.109 86.5805 16.2743 86.6765 16.413C86.7725 16.5517 86.9111 16.6583 87.0925 16.733C87.2738 16.8077 87.4925 16.845 87.7485 16.845ZM94.3737 18.333V6.76501H96.5977V18.333H94.3737ZM99.2313 18.333V16.045H101.551V18.333H99.2313ZM103.258 18.333L107.482 7.35701H110.426L114.65 18.333H112.074L111.29 16.173H106.506L105.722 18.333H103.258ZM107.194 14.253H110.602L109.626 11.549C109.583 11.4317 109.53 11.293 109.466 11.133C109.412 10.9623 109.354 10.7757 109.29 10.573C109.226 10.3703 109.162 10.173 109.098 9.98101C109.044 9.77834 108.991 9.59701 108.938 9.43701H108.842C108.788 9.63967 108.719 9.87967 108.634 10.157C108.548 10.4237 108.463 10.685 108.378 10.941C108.292 11.1863 108.223 11.389 108.17 11.549L107.194 14.253ZM116.276 18.333V7.35701H118.66V18.333H116.276Z" fill="white"/>
</svg>
